<svg width="41" height="42" viewBox="0 0 41 42" fill="none" xmlns="http://www.w3.org/2000/svg">
<g clip-path="url(#clip0_195_6937)">
<mask id="mask0_195_6937" style="mask-type:luminance" maskUnits="userSpaceOnUse" x="18" y="17" width="14" height="20">
<path d="M20.96 17.9573C18.5317 21.4508 18.149 25.9735 19.9561 29.8252C21.7633 33.6769 25.4861 36.2737 29.7248 36.6389C31.7394 33.0702 31.902 28.7469 30.1615 25.0371C28.4211 21.3272 24.9921 18.689 20.96 17.9573Z" fill="white"/>
</mask>
<g mask="url(#mask0_195_6937)">
<path d="M31.9027 17.9573H18.1493V36.6389H31.9027V17.9573Z" fill="#A9DFD8"/>
</g>
<mask id="mask1_195_6937" style="mask-type:luminance" maskUnits="userSpaceOnUse" x="0" y="0" width="41" height="42">
<path d="M41 21C41 9.67806 31.8219 0.5 20.5 0.5C9.17806 0.5 0 9.67806 0 21C0 32.3219 9.17841 41.5 20.5 41.5C31.8216 41.5 41 32.3219 41 21ZM8.16194 23.1657C8.16194 14.9458 14.8253 8.28239 23.0452 8.28239C31.2651 8.28239 37.9288 14.9458 37.9288 23.1657C37.9288 28.9288 34.653 33.9269 29.862 36.3998C29.8174 36.4798 29.7718 36.5599 29.7248 36.6389C29.6286 36.6308 29.5323 36.621 29.4368 36.6104C27.5001 37.5328 25.3331 38.0489 23.0452 38.0489C14.8253 38.0489 8.16194 31.3855 8.16194 23.1657Z" fill="white"/>
</mask>
<g mask="url(#mask1_195_6937)">
<path d="M41 0.5H0V41.5H41V0.5Z" fill="#A9DFD8"/>
</g>
</g>
<defs>
<clipPath id="clip0_195_6937">
<rect width="41" height="41" fill="white" transform="translate(0 0.5)"/>
</clipPath>
</defs>
</svg>
