<svg width="168" height="31" viewBox="0 0 168 31" fill="none" xmlns="http://www.w3.org/2000/svg">
<g clip-path="url(#clip0_195_2442)">
<path d="M15.2143 30.43C23.6176 30.43 30.4293 23.6182 30.4293 15.215V4.5645C30.4293 3.35392 29.9484 2.19292 29.0924 1.33691C28.2364 0.480901 27.0754 0 25.8648 0L15.9751 0V6.67482C15.9751 8.19784 16.0679 9.77564 16.8667 11.072C17.4385 12.001 18.2035 12.7962 19.1097 13.4035C20.016 14.0108 21.0422 14.4162 22.1189 14.5919L22.4102 14.6391C22.5304 14.6802 22.6346 14.7578 22.7085 14.861C22.7823 14.9643 22.822 15.0881 22.822 15.215C22.822 15.3419 22.7823 15.4657 22.7085 15.569C22.6346 15.6722 22.5304 15.7498 22.4102 15.7909L22.1189 15.8381C20.5458 16.095 19.0931 16.8396 17.966 17.9667C16.8389 19.0938 16.0943 20.5465 15.8374 22.1196L15.7902 22.4109C15.7491 22.5311 15.6716 22.6353 15.5683 22.7092C15.465 22.783 15.3413 22.8227 15.2143 22.8227C15.0874 22.8227 14.9636 22.783 14.8603 22.7092C14.7571 22.6353 14.6795 22.5311 14.6384 22.4109L14.5913 22.1196C14.4154 21.0429 14.0101 20.0167 13.4028 19.1105C12.7954 18.2042 12.0003 17.4392 11.0713 16.8673C9.77496 16.0686 8.19716 15.9757 6.67414 15.9757H0.0175781C0.41545 24.0252 7.06669 30.43 15.2143 30.43Z" fill="#4F5458"/>
<path d="M0 14.4543H6.67482C8.19784 14.4543 9.77564 14.3614 11.072 13.5627C12.0853 12.9383 12.9383 12.0853 13.5627 11.072C14.3614 9.77564 14.4543 8.19784 14.4543 6.67482V0H4.5645C3.35392 0 2.19292 0.480901 1.33691 1.33691C0.480901 2.19292 0 3.35392 0 4.5645L0 14.4543ZM35.3406 1.5215C35.3406 1.92503 35.1803 2.31203 34.895 2.59736C34.6097 2.8827 34.2227 3.043 33.8191 3.043C33.4156 3.043 33.0286 2.8827 32.7433 2.59736C32.4579 2.31203 32.2976 1.92503 32.2976 1.5215C32.2976 1.11797 32.4579 0.730974 32.7433 0.445637C33.0286 0.1603 33.4156 0 33.8191 0C34.2227 0 34.6097 0.1603 34.895 0.445637C35.1803 0.730974 35.3406 1.11797 35.3406 1.5215ZM161.059 9.20812C165.312 9.20812 167.365 12.1788 167.365 15.6197V22.0823H162.914V16.3866C162.914 14.827 162.345 13.5398 160.713 13.5398C159.081 13.5398 158.537 14.827 158.537 16.3866V22.0815H154.086V16.3866C154.086 14.827 153.542 13.5398 151.91 13.5398C150.278 13.5398 149.709 14.827 149.709 16.3866V22.0815H145.258V15.619C145.258 12.1781 147.31 9.20736 151.563 9.20736C153.888 9.20736 155.57 10.1233 156.336 11.6334C157.152 10.1233 158.933 9.2066 161.059 9.2066V9.20812ZM137.26 18.1211C138.694 18.1211 139.312 16.8088 139.312 15.2485V9.70261H143.763V15.7932C143.763 19.4326 141.636 22.4535 137.26 22.4535C132.882 22.4535 130.756 19.4334 130.756 15.7932V9.70261H135.207V15.2485C135.207 16.808 135.825 18.1211 137.26 18.1211ZM124.211 22.4779C121.417 22.4779 119.612 21.5125 118.548 19.6312L121.763 17.8236C122.208 18.6156 122.876 19.0119 123.989 19.0119C124.904 19.0119 125.324 18.6901 125.324 18.2938C125.324 16.7837 118.796 18.3189 118.796 13.5162C118.796 11.1884 120.774 9.30702 124.137 9.30702C127.079 9.30702 128.687 10.7426 129.404 12.1294L126.189 13.9613C125.918 13.2188 125.076 12.773 124.236 12.773C123.593 12.773 123.247 13.0453 123.247 13.4166C123.247 14.9518 129.775 13.5406 129.775 18.1949C129.775 20.7943 127.228 22.4779 124.211 22.4779ZM108.66 27.7765H104.209V15.8677C104.209 12.0792 107.053 9.33136 111.009 9.33136C114.867 9.33136 117.81 12.2777 117.81 15.8677C117.81 19.8289 115.188 22.4535 111.257 22.4535C110.341 22.4535 109.427 22.1812 108.66 21.7597V27.7765ZM111.009 18.2694C112.419 18.2694 113.359 17.18 113.359 15.8921C113.359 14.5805 112.419 13.5155 111.009 13.5155C109.6 13.5155 108.66 14.5805 108.66 15.8928C108.66 17.18 109.6 18.2694 111.009 18.2694ZM99.7503 8.39107C98.2912 8.39107 97.0801 7.17768 97.0801 5.71704C97.0801 4.2564 98.2912 3.043 99.7503 3.043C101.209 3.043 102.421 4.2564 102.421 5.71704C102.421 7.17768 101.209 8.39107 99.7503 8.39107ZM97.5251 9.70261H101.976V22.0823H97.5251V9.70261ZM88.9849 22.4535C85.1272 22.4535 82.1846 19.4828 82.1846 15.8677C82.1846 12.2777 85.1272 9.30702 88.9849 9.30702C92.8427 9.30702 95.7853 12.2777 95.7853 15.8677C95.7853 19.4828 92.8427 22.4535 88.9849 22.4535ZM88.9849 18.2694C90.3946 18.2694 91.3341 17.18 91.3341 15.8921C91.3341 14.5805 90.3946 13.4911 88.9849 13.4911C87.5753 13.4911 86.6357 14.5805 86.6357 15.8921C86.6357 17.18 87.5753 18.2694 88.9849 18.2694ZM73.7798 28.1478C70.714 28.1478 68.488 26.786 67.3507 24.3592L71.035 22.379C71.4306 23.2211 72.1724 24.0876 73.7053 24.0876C75.3135 24.0876 76.3763 23.072 76.5003 21.2896C75.9069 21.8099 74.9666 22.2055 73.5577 22.2055C70.1199 22.2055 67.35 19.5566 67.35 15.8426C67.35 12.2534 70.2933 9.33136 74.1511 9.33136C78.1077 9.33136 80.9514 12.08 80.9514 15.8677V20.77C80.9514 25.2265 77.8597 28.1478 73.7798 28.1478ZM74.0765 18.0222C75.4116 18.0222 76.4257 17.1055 76.4257 15.7437C76.4257 14.4071 75.4124 13.5155 74.0765 13.5155C72.7657 13.5155 71.7273 14.4071 71.7273 15.7445C71.7273 17.1062 72.7657 18.0214 74.0765 18.0214V18.0222ZM59.8003 22.4535C55.9425 22.4535 52.9992 19.4828 52.9992 15.8677C52.9992 12.2777 55.9425 9.30702 59.8003 9.30702C63.6573 9.30702 66.6006 12.2777 66.6006 15.8677C66.6006 19.4828 63.658 22.4535 59.8003 22.4535ZM59.8003 18.2694C61.2099 18.2694 62.1495 17.18 62.1495 15.8921C62.1495 14.5805 61.2099 13.4911 59.8003 13.4911C58.3906 13.4911 57.4511 14.5805 57.4511 15.8921C57.4511 17.18 58.3906 18.2694 59.8003 18.2694ZM44.8941 5.3709V17.8731H52.2635V22.0823H44.2757C41.4571 22.0823 40.3197 20.5965 40.3197 18.2443V5.3709H44.8941Z" fill="#4F5458"/>
</g>
<defs>
<clipPath id="clip0_195_2442">
<rect width="167.365" height="30.43" fill="white"/>
</clipPath>
</defs>
</svg>
