<svg width="17" height="16" viewBox="0 0 17 16" fill="none" xmlns="http://www.w3.org/2000/svg">
<path d="M7.8322 0.252335C7.90529 0.195891 8.04151 0.112886 8.14118 0.0730442C8.23753 0.0365221 8.39368 0.00332019 8.48339 0C8.57642 0 8.73257 0.0265615 8.83224 0.0630836C8.93191 0.0996057 9.08142 0.185931 9.16116 0.255655C9.2409 0.322058 9.34057 0.438265 9.38376 0.511309C9.42695 0.584354 9.71932 1.56381 10.0449 2.71924C10.437 4.10376 10.6662 4.86076 10.736 4.99357C10.7958 5.10645 10.942 5.29238 11.0749 5.42519C11.2244 5.57792 11.3839 5.69745 11.5234 5.76717C11.6596 5.83358 12.4703 6.07927 13.7494 6.44117C14.8558 6.74995 15.8359 7.04213 15.9256 7.08197C16.0186 7.12513 16.1548 7.2347 16.2346 7.32434C16.3409 7.44055 16.3974 7.54679 16.4472 7.71612C16.4937 7.87549 16.5103 7.98838 16.4937 8.08134C16.4804 8.15439 16.4472 8.29052 16.4173 8.38016C16.3808 8.49305 16.3077 8.59929 16.1947 8.7155C16.0817 8.82507 15.9621 8.90807 15.8425 8.95123C15.7429 8.98776 14.7926 9.26333 13.7328 9.55883C12.4769 9.91077 11.7194 10.1399 11.5566 10.2162C11.3739 10.3026 11.2443 10.3955 11.0715 10.5682C10.9187 10.7242 10.7991 10.8769 10.7327 11.0197C10.6662 11.1525 10.4037 12.0224 10.0416 13.294C9.71932 14.4329 9.42695 15.4123 9.38376 15.4854C9.34057 15.5584 9.2409 15.6746 9.16116 15.741C9.08142 15.8108 8.93191 15.8971 8.83224 15.9336C8.73257 15.9701 8.58306 16 8.5 16C8.41694 16 8.26743 15.9701 8.16776 15.9336C8.06809 15.8971 7.91858 15.8108 7.83884 15.741C7.7591 15.6746 7.65943 15.5584 7.61624 15.4854C7.57305 15.4123 7.28068 14.4329 6.95508 13.2774C6.55971 11.883 6.33379 11.1359 6.26402 11.0031C6.20421 10.8935 6.05803 10.701 5.92513 10.5682C5.7723 10.4121 5.61947 10.2992 5.47661 10.2262C5.34371 10.1631 4.47988 9.90081 3.20076 9.53891C2.06449 9.22017 1.08106 8.92467 1.00797 8.88151C0.934873 8.83835 0.818589 8.73874 0.748818 8.65906C0.662436 8.55945 0.59931 8.4366 0.552796 8.28056C0.506282 8.12119 0.48967 8.0083 0.506282 7.91533C0.519572 7.84229 0.549474 7.71612 0.576053 7.63312C0.602632 7.55011 0.679048 7.41731 0.748818 7.33762C0.818589 7.25794 0.934873 7.15833 1.00797 7.11517C1.08106 7.07201 2.06449 6.77983 3.21737 6.45445C4.6161 6.05935 5.36032 5.83358 5.49322 5.76385C5.60618 5.70409 5.79556 5.558 5.92513 5.42519C6.07796 5.27578 6.19757 5.11641 6.26734 4.97697C6.33711 4.84084 6.58629 4.01079 6.9584 2.70264C7.30393 1.48413 7.57305 0.587674 7.61956 0.501349C7.66607 0.424984 7.76242 0.312098 7.8322 0.252335Z" fill="#A9DFD8"/>
</svg>
