<svg width="205" height="226" viewBox="0 0 205 226" fill="none" xmlns="http://www.w3.org/2000/svg">
<g opacity="0.8">
<mask id="mask0_501_1070" style="mask-type:alpha" maskUnits="userSpaceOnUse" x="0" y="0" width="205" height="226">
<rect x="0.500031" y="0.5" width="204" height="225" rx="19.5" fill="#21222D" stroke="url(#paint0_linear_501_1070)"/>
</mask>
<g mask="url(#mask0_501_1070)">
<g filter="url(#filter0_f_501_1070)">
<path style="mix-blend-mode:screen" opacity="0.05" d="M-34.9385 121.462C-45.0519 129.059 -46.039 145.857 -36.9304 155.356L86.3397 283.917C95.3518 293.316 109.427 290.52 114.938 278.237L223.668 35.8774C227.547 27.2319 225.826 16.5303 219.492 9.90385L185.843 -25.2971C179.579 -31.8495 170.377 -32.7687 163.413 -27.5374L-34.9385 121.462Z" fill="url(#paint1_linear_501_1070)"/>
<path style="mix-blend-mode:screen" opacity="0.09" d="M-31.23 124.644C-41.1937 132.323 -42.0875 148.978 -33.0418 158.408L83.3188 279.706C92.2701 289.037 106.236 286.351 111.822 274.224L222.184 34.6306C226.177 25.9617 224.49 15.1424 218.102 8.45767L187.047 -24.0416C180.724 -30.6585 171.415 -31.5267 164.438 -26.1499L-31.23 124.644Z" fill="url(#paint2_linear_501_1070)"/>
<path style="mix-blend-mode:screen" opacity="0.14" d="M-27.5128 127.822C-37.3251 135.58 -38.1263 152.091 -29.1447 161.45L80.2971 275.491C89.1873 284.755 103.043 282.179 108.703 270.209L220.686 33.3706C224.795 24.68 223.143 13.7421 216.701 6.99854L188.255 -22.7823C181.872 -29.4647 172.454 -30.2801 165.466 -24.7552L-27.5128 127.822Z" fill="url(#paint3_linear_501_1070)"/>
<path style="mix-blend-mode:screen" opacity="0.19" d="M-23.7949 131.005C-33.4543 138.84 -34.1635 155.205 -25.2461 164.493L77.2757 271.278C86.1042 280.473 99.8489 278.006 105.581 266.196L219.193 32.1206C223.421 23.4099 221.805 12.3513 215.309 5.54798L189.466 -21.5199C183.022 -28.2689 173.493 -29.0297 166.496 -23.3538L-23.7949 131.005Z" fill="url(#paint4_linear_501_1070)"/>
<path style="mix-blend-mode:screen" opacity="0.24" d="M-20.0844 134.202C-29.5894 142.113 -30.2069 158.331 -21.3541 167.548L74.2458 267.075C83.012 276.201 96.6441 273.842 102.447 262.194L217.695 30.8686C222.044 22.1397 220.466 10.9588 213.915 4.09478L190.679 -20.254C184.174 -27.0707 174.533 -27.7749 167.528 -21.945L-20.0844 134.202Z" fill="url(#paint5_linear_501_1070)"/>
<path style="mix-blend-mode:screen" opacity="0.28" d="M-16.3655 137.393C-25.7149 145.377 -26.2414 161.448 -17.4532 170.592L71.2212 262.86C79.925 271.917 93.4437 269.664 99.3156 258.18L216.181 29.6015C220.653 20.8563 219.113 9.55257 212.508 2.62743L191.894 -18.985C185.327 -25.8706 175.571 -26.5164 168.561 -20.5296L-16.3655 137.393Z" fill="url(#paint6_linear_501_1070)"/>
<path style="mix-blend-mode:screen" opacity="0.33" d="M-12.6502 140.598C-21.8431 148.654 -22.2786 164.578 -13.554 173.649L68.199 258.65C76.8399 267.634 90.2424 265.488 96.1814 254.17L214.674 28.3449C219.271 19.5855 217.772 8.15677 211.112 1.1694L193.114 -17.7114C186.484 -24.6672 176.612 -25.2526 169.598 -19.1059L-12.6502 140.598Z" fill="url(#paint7_linear_501_1070)"/>
<path style="mix-blend-mode:screen" opacity="0.38" d="M-8.92602 143.799C-17.9617 151.924 -18.3076 167.699 -9.64732 176.697L65.163 254.425C73.7405 263.337 87.0264 261.297 93.031 250.146L213.15 27.0733C217.873 18.3017 216.418 6.74692 209.701 -0.303501L194.346 -16.4229C187.652 -23.4499 177.664 -23.9732 170.648 -17.6646L-8.92602 143.799Z" fill="url(#paint8_linear_501_1070)"/>
<path style="mix-blend-mode:screen" opacity="0.43" d="M-5.2015 147.004C-14.0782 155.195 -14.3346 170.821 -5.73876 179.745L62.1382 250.213C70.6519 259.052 83.8196 257.116 89.8878 246.135L211.632 25.8105C216.484 17.0291 215.073 5.34689 208.301 -1.76741L195.571 -15.1415C188.813 -22.2413 178.705 -22.7004 171.689 -16.2262L-5.2015 147.004Z" fill="url(#paint9_linear_501_1070)"/>
<path style="mix-blend-mode:screen" opacity="0.47" d="M-1.48148 150.222C-10.1989 158.478 -10.3657 173.955 -1.83262 182.804L59.1118 246.004C67.5619 254.767 80.6093 252.934 86.7383 242.124L210.098 24.5322C215.081 15.7434 213.717 3.93346 206.889 -3.24528L196.799 -13.8552C189.975 -21.0296 179.746 -21.4225 172.732 -14.7796L-1.48148 150.222Z" fill="url(#paint10_linear_501_1070)"/>
<path style="mix-blend-mode:screen" opacity="0.52" d="M2.24753 153.435C-6.30932 161.754 -6.38756 177.081 2.08206 185.855L56.0853 241.795C64.4711 250.482 77.397 248.751 83.5852 238.114L208.57 23.263C213.686 14.4693 212.37 2.53006 205.487 -4.71434L198.029 -12.5636C191.14 -19.814 180.787 -20.1388 173.778 -13.3244L2.24753 153.435Z" fill="url(#paint11_linear_501_1070)"/>
<path style="mix-blend-mode:screen" opacity="0.57" d="M5.98818 156.663C-2.40687 165.043 -2.39648 180.22 6.01025 188.917L53.0563 237.587C61.3777 246.195 74.1808 244.565 80.4255 234.102L207.026 21.9769C212.276 13.1811 211.01 1.11247 204.072 -6.1982L199.263 -11.2662C192.307 -18.595 181.828 -18.8496 174.825 -11.8598L5.98818 156.663Z" fill="url(#paint12_linear_501_1070)"/>
<path style="mix-blend-mode:screen" opacity="0.62" d="M9.71735 159.892C1.48301 168.33 1.58231 183.36 9.9294 191.979L50.0287 233.387C58.2855 241.913 70.9615 240.381 77.2598 230.096L205.489 20.699C210.874 11.9041 209.662 -0.295131 202.669 -7.67338L200.5 -9.96266C193.477 -17.3719 182.87 -17.5547 175.876 -10.387L9.71735 159.892Z" fill="url(#paint13_linear_501_1070)"/>
<path style="mix-blend-mode:screen" opacity="0.66" d="M13.457 163.114C5.38394 171.609 5.57148 186.492 13.8593 195.033L46.9994 229.186C55.1915 237.629 67.7395 236.193 74.0888 226.087L204.125 19.1034C209.541 10.4833 208.407 -1.60634 201.497 -8.90831C194.545 -16.255 184.015 -16.3624 177.168 -9.15636L13.457 163.114Z" fill="url(#paint14_linear_501_1070)"/>
<path style="mix-blend-mode:screen" opacity="0.71" d="M17.1936 166.348C9.28137 174.899 9.55784 189.636 17.7892 198.098L43.9624 225.004C52.0895 233.359 64.5056 232.018 70.9027 222.094L203.631 16.1906C208.59 8.49803 207.628 -2.41429 201.411 -8.99743C195.142 -15.6348 185.62 -15.6652 179.515 -9.06736L17.1936 166.348Z" fill="url(#paint15_linear_501_1070)"/>
<path style="mix-blend-mode:screen" opacity="0.76" d="M20.9452 169.571C13.1926 178.176 13.5591 192.772 21.7383 201.153L40.9321 220.821C48.9946 229.082 61.2747 227.831 67.7155 218.092L203.162 13.2843C207.646 6.50335 206.844 -3.22793 201.318 -9.0935C195.733 -15.022 187.221 -14.9903 181.843 -9.02095L20.9452 169.571Z" fill="url(#paint16_linear_501_1070)"/>
<path style="mix-blend-mode:screen" opacity="0.81" d="M24.7062 172.791C17.1111 181.451 17.5703 195.911 25.704 204.209L37.9029 216.654C45.9007 224.813 58.0377 223.648 64.5175 214.099L202.728 10.4234C206.727 4.53006 206.073 -4.02857 201.23 -9.18485C196.32 -14.4114 188.813 -14.3325 184.141 -9.00519L24.7062 172.791Z" fill="url(#paint17_linear_501_1070)"/>
<path style="mix-blend-mode:screen" opacity="0.85" d="M-41.7693 96.9251C-52.16 104.407 -53.2698 121.511 -43.9868 131.102L108.813 288.969C117.88 298.337 131.972 295.431 137.41 283.073L239.185 51.7965C242.985 43.16 241.233 32.5316 234.924 25.9495L172.599 -39.0695C166.432 -45.5034 157.413 -46.496 150.48 -41.504L-41.7693 96.9251Z" fill="url(#paint18_linear_501_1070)"/>
<path style="mix-blend-mode:screen" opacity="0.9" d="M22.3773 181.104C15.5506 189.322 16.1743 202.634 23.742 210.227C31.1052 217.615 42.1509 216.66 48.2605 208.108L192.916 5.62482C195.898 1.45131 195.503 -4.75924 192.017 -8.50525C188.455 -12.3332 182.961 -12.2056 179.648 -8.21801L22.3773 181.104Z" fill="url(#paint19_linear_501_1070)"/>
</g>
</g>
</g>
<defs>
<filter id="filter0_f_501_1070" x="-154.308" y="-148.667" width="499.486" height="547.167" filterUnits="userSpaceOnUse" color-interpolation-filters="sRGB">
<feFlood flood-opacity="0" result="BackgroundImageFix"/>
<feBlend mode="normal" in="SourceGraphic" in2="BackgroundImageFix" result="shape"/>
<feGaussianBlur stdDeviation="52" result="effect1_foregroundBlur_501_1070"/>
</filter>
<linearGradient id="paint0_linear_501_1070" x1="78.5" y1="12" x2="230.332" y2="265.349" gradientUnits="userSpaceOnUse">
<stop stop-color="#A9DFD8"/>
<stop offset="0.340878" stop-color="#1C1D23"/>
<stop offset="0.553706" stop-color="#1C1D23"/>
<stop offset="1" stop-color="#FFD8A2"/>
</linearGradient>
<linearGradient id="paint1_linear_501_1070" x1="579.125" y1="438.463" x2="414.966" y2="596.337" gradientUnits="userSpaceOnUse">
<stop stop-color="#78C8BD" stop-opacity="0.21"/>
<stop offset="0.230769" stop-color="#7FB5C4" stop-opacity="0.0769231"/>
<stop offset="1" stop-opacity="0"/>
</linearGradient>
<linearGradient id="paint2_linear_501_1070" x1="560.611" y1="419.106" x2="396.878" y2="576.555" gradientUnits="userSpaceOnUse">
<stop stop-color="#78C8BD" stop-opacity="0.21"/>
<stop offset="0.230769" stop-color="#7FB5C4" stop-opacity="0.0769231"/>
<stop offset="1" stop-opacity="0"/>
</linearGradient>
<linearGradient id="paint3_linear_501_1070" x1="542.098" y1="399.75" x2="378.791" y2="556.773" gradientUnits="userSpaceOnUse">
<stop stop-color="#78C8BD" stop-opacity="0.21"/>
<stop offset="0.230769" stop-color="#7FB5C4" stop-opacity="0.0769231"/>
<stop offset="1" stop-opacity="0"/>
</linearGradient>
<linearGradient id="paint4_linear_501_1070" x1="523.584" y1="380.393" x2="360.702" y2="536.99" gradientUnits="userSpaceOnUse">
<stop stop-color="#78C8BD" stop-opacity="0.21"/>
<stop offset="0.230769" stop-color="#7FB5C4" stop-opacity="0.0769231"/>
<stop offset="1" stop-opacity="0"/>
</linearGradient>
<linearGradient id="paint5_linear_501_1070" x1="505.07" y1="361.038" x2="342.604" y2="517.214" gradientUnits="userSpaceOnUse">
<stop stop-color="#78C8BD" stop-opacity="0.21"/>
<stop offset="0.230769" stop-color="#7FB5C4" stop-opacity="0.0769231"/>
<stop offset="1" stop-opacity="0"/>
</linearGradient>
<linearGradient id="paint6_linear_501_1070" x1="486.556" y1="341.681" x2="324.513" y2="497.427" gradientUnits="userSpaceOnUse">
<stop stop-color="#78C8BD" stop-opacity="0.21"/>
<stop offset="0.230769" stop-color="#7FB5C4" stop-opacity="0.0769231"/>
<stop offset="1" stop-opacity="0"/>
</linearGradient>
<linearGradient id="paint7_linear_501_1070" x1="468.044" y1="322.325" x2="306.423" y2="477.64" gradientUnits="userSpaceOnUse">
<stop stop-color="#78C8BD" stop-opacity="0.21"/>
<stop offset="0.230769" stop-color="#7FB5C4" stop-opacity="0.0769231"/>
<stop offset="1" stop-opacity="0"/>
</linearGradient>
<linearGradient id="paint8_linear_501_1070" x1="449.495" y1="302.932" x2="288.295" y2="457.814" gradientUnits="userSpaceOnUse">
<stop stop-color="#78C8BD" stop-opacity="0.21"/>
<stop offset="0.230769" stop-color="#7FB5C4" stop-opacity="0.0769231"/>
<stop offset="1" stop-opacity="0"/>
</linearGradient>
<linearGradient id="paint9_linear_501_1070" x1="430.982" y1="283.576" x2="270.2" y2="438.022" gradientUnits="userSpaceOnUse">
<stop stop-color="#78C8BD" stop-opacity="0.21"/>
<stop offset="0.230769" stop-color="#7FB5C4" stop-opacity="0.0769231"/>
<stop offset="1" stop-opacity="0"/>
</linearGradient>
<linearGradient id="paint10_linear_501_1070" x1="412.466" y1="264.223" x2="252.078" y2="418.252" gradientUnits="userSpaceOnUse">
<stop stop-color="#78C8BD" stop-opacity="0.21"/>
<stop offset="0.230769" stop-color="#7FB5C4" stop-opacity="0.0769231"/>
<stop offset="1" stop-opacity="0"/>
</linearGradient>
<linearGradient id="paint11_linear_501_1070" x1="393.947" y1="244.874" x2="233.936" y2="398.496" gradientUnits="userSpaceOnUse">
<stop stop-color="#78C8BD" stop-opacity="0.21"/>
<stop offset="0.230769" stop-color="#7FB5C4" stop-opacity="0.0769231"/>
<stop offset="1" stop-opacity="0"/>
</linearGradient>
<linearGradient id="paint12_linear_501_1070" x1="375.404" y1="225.5" x2="215.766" y2="378.711" gradientUnits="userSpaceOnUse">
<stop stop-color="#78C8BD" stop-opacity="0.21"/>
<stop offset="0.230769" stop-color="#7FB5C4" stop-opacity="0.0769231"/>
<stop offset="1" stop-opacity="0"/>
</linearGradient>
<linearGradient id="paint13_linear_501_1070" x1="356.885" y1="206.152" x2="197.607" y2="358.952" gradientUnits="userSpaceOnUse">
<stop stop-color="#78C8BD" stop-opacity="0.21"/>
<stop offset="0.230769" stop-color="#7FB5C4" stop-opacity="0.0769231"/>
<stop offset="1" stop-opacity="0"/>
</linearGradient>
<linearGradient id="paint14_linear_501_1070" x1="338.366" y1="186.802" x2="179.451" y2="339.176" gradientUnits="userSpaceOnUse">
<stop stop-color="#78C8BD" stop-opacity="0.21"/>
<stop offset="0.230769" stop-color="#7FB5C4" stop-opacity="0.0769231"/>
<stop offset="1" stop-opacity="0"/>
</linearGradient>
<linearGradient id="paint15_linear_501_1070" x1="319.846" y1="167.454" x2="161.278" y2="319.396" gradientUnits="userSpaceOnUse">
<stop stop-color="#78C8BD" stop-opacity="0.21"/>
<stop offset="0.230769" stop-color="#7FB5C4" stop-opacity="0.0769231"/>
<stop offset="1" stop-opacity="0"/>
</linearGradient>
<linearGradient id="paint16_linear_501_1070" x1="301.328" y1="148.104" x2="143.101" y2="299.591" gradientUnits="userSpaceOnUse">
<stop stop-color="#78C8BD" stop-opacity="0.21"/>
<stop offset="0.230769" stop-color="#7FB5C4" stop-opacity="0.0769231"/>
<stop offset="1" stop-opacity="0"/>
</linearGradient>
<linearGradient id="paint17_linear_501_1070" x1="282.809" y1="128.755" x2="124.906" y2="279.758" gradientUnits="userSpaceOnUse">
<stop stop-color="#A6ECFF" stop-opacity="0.8"/>
<stop offset="0.230769" stop-color="#7FB5C4" stop-opacity="0.18"/>
<stop offset="1" stop-opacity="0"/>
</linearGradient>
<linearGradient id="paint18_linear_501_1070" x1="654.509" y1="514.306" x2="497.377" y2="665.483" gradientUnits="userSpaceOnUse">
<stop stop-color="#78C8BD" stop-opacity="0.21"/>
<stop offset="0.230769" stop-color="#7FB5C4" stop-opacity="0.0769231"/>
<stop offset="1" stop-opacity="0"/>
</linearGradient>
<linearGradient id="paint19_linear_501_1070" x1="131.025" y1="55.2102" x2="165.281" y2="108.035" gradientUnits="userSpaceOnUse">
<stop stop-color="#FCB859"/>
<stop offset="1" stop-opacity="0"/>
</linearGradient>
</defs>
</svg>
