<svg width="183" height="115" viewBox="0 0 183 115" fill="none" xmlns="http://www.w3.org/2000/svg">
<g clip-path="url(#clip0_261_5708)">
<path d="M52.7463 63.8072C52.4367 63.8072 52.1825 63.9104 52.1825 64.036C52.1825 64.1617 52.4367 64.2649 52.7463 64.2649C53.0558 64.2649 53.3101 64.1617 53.3101 64.036C53.3101 63.9104 53.0558 63.8072 52.7463 63.8072Z" fill="white"/>
<path d="M69.107 28.6787C68.7974 28.6787 68.5431 28.782 68.5431 28.9076C68.5431 29.0333 68.7974 29.1365 69.107 29.1365C69.4165 29.1365 69.6708 29.0333 69.6708 28.9076C69.6708 28.782 69.4165 28.6787 69.107 28.6787Z" fill="white"/>
<path d="M23.3608 30.5906C23.0512 30.5906 22.797 30.6938 22.797 30.8195C22.797 30.9451 23.0512 31.0483 23.3608 31.0483C23.6703 31.0483 23.9246 30.9451 23.9246 30.8195C23.9246 30.6938 23.6703 30.5906 23.3608 30.5906Z" fill="white"/>
<path d="M50.1583 13.4881C49.8487 13.4881 49.5945 13.5913 49.5945 13.7169C49.5945 13.8426 49.8487 13.9458 50.1583 13.9458C50.4678 13.9458 50.7221 13.8426 50.7221 13.7169C50.7221 13.5913 50.4678 13.4881 50.1583 13.4881Z" fill="white"/>
<path d="M8.51237 109.225C8.07016 109.225 7.70534 109.374 7.70534 109.553C7.70534 109.733 8.07016 109.881 8.51237 109.881C8.95458 109.881 9.3194 109.733 9.3194 109.553C9.3194 109.374 8.95458 109.225 8.51237 109.225Z" fill="white"/>
<path d="M71.2295 98.4373C70.7873 98.4373 70.4224 98.5854 70.4224 98.7649C70.4224 98.9444 70.7873 99.0925 71.2295 99.0925C71.6717 99.0925 72.0365 98.9444 72.0365 98.7649C72.0365 98.5854 71.6717 98.4373 71.2295 98.4373Z" fill="white"/>
<path d="M148.529 89.8888C148.087 89.8888 147.722 90.0369 147.722 90.2164C147.722 90.3959 148.087 90.5439 148.529 90.5439C148.971 90.5439 149.336 90.3959 149.336 90.2164C149.336 90.0369 148.971 89.8888 148.529 89.8888Z" fill="white"/>
<path d="M93.3741 58.7452C93.3741 58.5642 93.7354 58.4176 94.1811 58.4176C94.6268 58.4176 94.9882 58.5642 94.9882 58.7452C94.9882 58.9261 94.6268 59.0728 94.1811 59.0728C93.7354 59.0728 93.3741 58.9261 93.3741 58.7452Z" fill="white"/>
<path d="M2.96281 86.788C2.96281 86.6616 3.21525 86.5591 3.52664 86.5591C3.83803 86.5591 4.09045 86.6616 4.09045 86.788C4.09045 86.9144 3.83803 87.0168 3.52664 87.0168C3.21525 87.0168 2.96281 86.9144 2.96281 86.788Z" fill="white"/>
<path d="M10.6248 56.0032C10.3152 56.0032 10.061 56.1064 10.061 56.2321C10.061 56.3577 10.3152 56.4609 10.6248 56.4609C10.9343 56.4609 11.1886 56.3577 11.1886 56.2321C11.1886 56.1064 10.9343 56.0032 10.6248 56.0032Z" fill="white"/>
<path d="M20.1098 90.5708C19.8003 90.5708 19.546 90.674 19.546 90.7997C19.546 90.9253 19.8003 91.0286 20.1098 91.0286C20.4194 91.0286 20.6736 90.9253 20.6736 90.7997C20.6736 90.674 20.4194 90.5708 20.1098 90.5708Z" fill="white"/>
<path d="M110.753 68.4339C110.444 68.4339 110.189 68.5371 110.189 68.6627C110.189 68.7884 110.444 68.8916 110.753 68.8916C111.063 68.8916 111.317 68.7884 111.317 68.6627C111.317 68.5371 111.063 68.4339 110.753 68.4339Z" fill="white"/>
<path d="M132.543 56.0662C132.233 56.0662 131.979 56.1694 131.979 56.2951C131.979 56.4207 132.233 56.5239 132.543 56.5239C132.852 56.5239 133.107 56.4207 133.107 56.2951C133.107 56.1694 132.852 56.0662 132.543 56.0662Z" fill="white"/>
<path d="M120.336 21.1443C120.027 21.1443 119.772 21.2475 119.772 21.3732C119.772 21.4988 120.027 21.6021 120.336 21.6021C120.646 21.6021 120.9 21.4988 120.9 21.3732C120.9 21.2475 120.646 21.1443 120.336 21.1443Z" fill="white"/>
<path d="M143.465 15.3328C143.156 15.3328 142.901 15.436 142.901 15.5617C142.901 15.6873 143.156 15.7905 143.465 15.7905C143.775 15.7905 144.029 15.6873 144.029 15.5617C144.029 15.436 143.775 15.3328 143.465 15.3328Z" fill="white"/>
<path d="M100.15 13.2598C99.8402 13.2598 99.5859 13.363 99.5859 13.4887C99.5859 13.6143 99.8402 13.7175 100.15 13.7175C100.459 13.7175 100.714 13.6143 100.714 13.4887C100.714 13.363 100.459 13.2598 100.15 13.2598Z" fill="white"/>
<path d="M26.8094 15.9116C26.4998 15.9116 26.2455 16.0149 26.2455 16.1405C26.2455 16.2662 26.4998 16.3694 26.8094 16.3694C27.1189 16.3694 27.3732 16.2662 27.3732 16.1405C27.3732 16.0149 27.1189 15.9116 26.8094 15.9116Z" fill="white"/>
<path d="M86.7728 68.6851C86.4633 68.6851 86.209 68.7883 86.209 68.914C86.209 69.0396 86.4633 69.1428 86.7728 69.1428C87.0824 69.1428 87.3367 69.0396 87.3367 68.914C87.3367 68.7883 87.0824 68.6851 86.7728 68.6851Z" fill="white"/>
<path d="M157.041 76.0581C156.731 76.0581 156.477 76.1614 156.477 76.287C156.477 76.4127 156.731 76.5159 157.041 76.5159C157.35 76.5159 157.604 76.4127 157.604 76.287C157.604 76.1614 157.35 76.0581 157.041 76.0581Z" fill="white"/>
<path d="M127.159 45.9651C126.849 45.9651 126.595 46.0683 126.595 46.194C126.595 46.3196 126.849 46.4229 127.159 46.4229C127.468 46.4229 127.723 46.3196 127.723 46.194C127.723 46.0683 127.468 45.9651 127.159 45.9651Z" fill="white"/>
<path d="M133.007 19.3672C132.698 19.3672 132.444 19.4704 132.444 19.5961C132.444 19.7217 132.698 19.825 133.007 19.825C133.317 19.825 133.571 19.7217 133.571 19.5961C133.571 19.4704 133.317 19.3672 133.007 19.3672Z" fill="white"/>
</g>
<defs>
<clipPath id="clip0_261_5708">
<rect width="114" height="183" fill="white" transform="matrix(-4.37114e-08 -1 -1 4.37114e-08 183 114.5)"/>
</clipPath>
</defs>
</svg>
