<svg width="18" height="18" viewBox="0 0 18 18" fill="none" xmlns="http://www.w3.org/2000/svg">
<path fill-rule="evenodd" clip-rule="evenodd" d="M8.98272 0.000417736C9.24187 -0.00309849 9.33516 0.0144827 9.55285 0.095356C9.69451 0.148099 9.89492 0.253586 9.99858 0.330943C10.1161 0.418849 10.3648 0.693115 10.6585 1.06935C10.9557 1.44559 11.1699 1.68118 11.2321 1.70931C11.2874 1.7304 11.3669 1.75853 11.4083 1.76908C11.4533 1.78315 11.8022 1.70579 12.203 1.59679C12.7835 1.44207 12.9736 1.40339 13.1982 1.40339C13.3744 1.40339 13.5541 1.42801 13.6992 1.4702C13.8236 1.50888 14.024 1.60734 14.1449 1.69172C14.2693 1.77611 14.4213 1.90621 14.4835 1.98357C14.5492 2.06093 14.6563 2.23674 14.7185 2.37036C14.7876 2.51101 14.8533 2.71495 14.8705 2.84505C14.8878 2.97163 14.9154 3.32677 14.9258 3.6362C14.9396 3.94563 14.9638 4.25857 14.9811 4.33241C14.9984 4.40274 15.0537 4.50822 15.1055 4.568C15.178 4.64536 15.3646 4.73678 15.8415 4.91962C16.1939 5.05676 16.5567 5.21147 16.6535 5.26421C16.7467 5.31696 16.9022 5.44003 16.999 5.53848C17.0923 5.63694 17.2201 5.80923 17.2823 5.92527C17.3411 6.03779 17.4136 6.22766 17.4447 6.3437C17.4758 6.45973 17.5 6.64258 17.5 6.74806C17.5 6.85355 17.4758 7.03288 17.4482 7.14188C17.4205 7.2544 17.3583 7.41966 17.3134 7.51109C17.2685 7.60602 17.1096 7.86974 16.9575 8.10181C16.8055 8.33388 16.6431 8.59408 16.5913 8.68199C16.5291 8.79099 16.498 8.88945 16.498 8.99845C16.498 9.10745 16.5291 9.20591 16.5913 9.31491C16.6431 9.40282 16.8055 9.66302 16.9575 9.89509C17.1096 10.1272 17.265 10.3874 17.31 10.4753C17.3549 10.5632 17.4136 10.7214 17.4447 10.8269C17.4758 10.9324 17.5 11.1082 17.5 11.2137C17.5 11.3192 17.4758 11.509 17.4447 11.6356C17.4171 11.7622 17.3411 11.9591 17.2823 12.0716C17.2201 12.1877 17.0923 12.36 16.999 12.4584C16.9022 12.5569 16.7467 12.6799 16.6535 12.7327C16.5567 12.7854 16.1939 12.9401 15.8415 13.0773C15.3646 13.2601 15.178 13.3515 15.1055 13.4289C15.0537 13.4887 14.9984 13.5942 14.9811 13.6645C14.9638 13.7383 14.9396 14.0513 14.9258 14.3607C14.9154 14.6701 14.8878 15.0253 14.8705 15.1519C14.8533 15.282 14.7876 15.4859 14.7185 15.6265C14.6563 15.7637 14.5492 15.936 14.4835 16.0133C14.4213 16.0907 14.2693 16.2208 14.1449 16.3052C14.024 16.3896 13.8236 16.488 13.6992 16.5267C13.5541 16.5689 13.3744 16.5935 13.1982 16.5935C12.9736 16.5935 12.7835 16.5548 12.203 16.4001C11.5915 16.2349 11.4705 16.2102 11.3565 16.2419C11.2874 16.2595 11.201 16.2946 11.1699 16.3192C11.1354 16.3439 10.8935 16.6322 10.6343 16.9592C10.3096 17.3636 10.0953 17.5991 9.96748 17.6871C9.86382 17.7609 9.65996 17.8629 9.51829 17.9121C9.33171 17.9754 9.18659 18 9 18C8.81341 18 8.66829 17.9754 8.48171 17.9121C8.34004 17.8629 8.13618 17.7609 8.03252 17.6871C7.90468 17.5991 7.69045 17.3636 7.36565 16.9592C7.1065 16.6322 6.86463 16.3439 6.83008 16.3192C6.79898 16.2946 6.7126 16.2595 6.6435 16.2419C6.52947 16.2102 6.40854 16.2349 5.7935 16.4001C5.21646 16.5548 5.02642 16.5935 4.80183 16.5935C4.62561 16.5935 4.44594 16.5689 4.30081 16.5267C4.17642 16.488 3.97602 16.3896 3.85508 16.3052C3.73069 16.2208 3.57866 16.0907 3.51646 16.0133C3.45081 15.936 3.3437 15.7637 3.2815 15.6265C3.2124 15.4859 3.14675 15.282 3.12947 15.1519C3.1122 15.0253 3.08455 14.6701 3.07419 14.3607C3.06037 14.0513 3.03618 13.7383 3.0189 13.6645C3.00163 13.5942 2.9498 13.4922 2.90833 13.4359C2.84614 13.3656 2.65955 13.2777 2.20691 13.0984C1.86829 12.9683 1.49512 12.81 1.3811 12.7468C1.26707 12.687 1.09776 12.5569 1.00102 12.4584C0.907724 12.36 0.779878 12.1877 0.717683 12.0716C0.658943 11.9591 0.586382 11.7692 0.555285 11.6532C0.524187 11.5372 0.5 11.3543 0.5 11.2488C0.5 11.1434 0.524187 10.964 0.551829 10.8515C0.579472 10.7425 0.641667 10.5772 0.686585 10.4823C0.731504 10.3909 0.890447 10.1272 1.04248 9.89509C1.19451 9.66302 1.35691 9.40282 1.40874 9.31491C1.47093 9.20591 1.50203 9.10745 1.50203 8.99845C1.50203 8.88945 1.47093 8.79099 1.40874 8.68199C1.35691 8.59408 1.19451 8.33388 1.04248 8.10181C0.890447 7.86974 0.734959 7.60954 0.690041 7.52163C0.645122 7.43373 0.586382 7.2755 0.555285 7.17001C0.524187 7.06452 0.5 6.88871 0.5 6.78323C0.5 6.67774 0.524187 6.48786 0.555285 6.36128C0.582927 6.23469 0.658943 6.03779 0.717683 5.92527C0.779878 5.80923 0.907724 5.63694 1.00102 5.53848C1.09776 5.44003 1.26707 5.30993 1.3811 5.25015C1.49512 5.18686 1.86829 5.02863 2.20691 4.89853C2.65955 4.7192 2.84614 4.63129 2.90833 4.55745C2.9498 4.50471 3.00163 4.40274 3.0189 4.3289C3.03618 4.25857 3.06037 3.94563 3.07419 3.6362C3.08455 3.32677 3.1122 2.97163 3.12947 2.84505C3.14675 2.71846 3.21585 2.50397 3.27805 2.37036C3.3437 2.23674 3.44736 2.06093 3.51301 1.98357C3.57866 1.90621 3.73069 1.77611 3.85508 1.69172C3.97602 1.60734 4.17642 1.50888 4.30081 1.4702C4.44594 1.42801 4.62561 1.40339 4.80183 1.40339C5.02642 1.40339 5.21646 1.44207 5.79695 1.59679C6.40854 1.76205 6.52947 1.78666 6.64004 1.75502C6.7126 1.73744 6.79898 1.70227 6.83008 1.67766C6.86463 1.65305 7.1065 1.36472 7.36565 1.03771C7.69736 0.626307 7.90122 0.401268 8.03252 0.309846C8.13618 0.236005 8.32276 0.137551 8.44715 0.0918397C8.61992 0.0250314 8.74431 0.00393397 8.98272 0.000417736ZM8.65793 1.30846C8.61301 1.35065 8.38841 1.6214 8.15346 1.91325C7.92195 2.20158 7.6939 2.47584 7.64898 2.51804C7.60406 2.56023 7.47276 2.65166 7.35874 2.71846C7.23435 2.79582 7.04776 2.86966 6.89228 2.90131C6.71606 2.9435 6.55711 2.95405 6.39126 2.93999C6.25996 2.92592 5.8626 2.83802 5.51016 2.73956C5.15772 2.64462 4.82602 2.56375 4.76728 2.56375C4.70854 2.56375 4.60142 2.59891 4.52886 2.64462C4.45285 2.68682 4.36646 2.77824 4.33191 2.84505C4.28008 2.9435 4.25935 3.1158 4.23171 3.67136C4.21098 4.05815 4.17642 4.46251 4.15569 4.568C4.13496 4.67349 4.06585 4.86336 4.00366 4.98995C3.93455 5.1306 3.81362 5.29586 3.68923 5.41541C3.57866 5.52442 3.39553 5.66155 3.2815 5.71781C3.16748 5.77758 2.8185 5.92175 2.50407 6.04482C2.18963 6.16437 1.89594 6.29799 1.85447 6.34018C1.80955 6.37886 1.74736 6.45973 1.71972 6.51951C1.68286 6.58983 1.67019 6.6836 1.68171 6.80081C1.69553 6.95201 1.75427 7.06101 2.10325 7.60954C2.3624 8.01742 2.53171 8.32333 2.58008 8.47102C2.63537 8.63276 2.6561 8.78748 2.6561 8.99845C2.6561 9.20942 2.63537 9.36414 2.58008 9.52589C2.53171 9.67357 2.3624 9.97948 2.10325 10.3874C1.75427 10.9359 1.69553 11.0449 1.68171 11.1961C1.67019 11.3133 1.68286 11.4071 1.71972 11.4774C1.74736 11.5337 1.80955 11.618 1.85447 11.6567C1.89594 11.6989 2.22764 11.8466 2.59045 11.9872C2.95325 12.1279 3.32642 12.2932 3.41972 12.3565C3.51646 12.4197 3.66504 12.5498 3.75833 12.6483C3.84817 12.7503 3.96565 12.9296 4.02439 13.0491C4.07967 13.1722 4.14187 13.348 4.15915 13.4465C4.17988 13.5414 4.21098 13.9388 4.23171 14.3255C4.25935 14.8811 4.28008 15.0534 4.33191 15.1519C4.36646 15.2187 4.45285 15.3101 4.52886 15.3523C4.60142 15.398 4.70854 15.4332 4.76728 15.4332C4.82602 15.4332 5.16809 15.3523 5.52744 15.2503C6.10102 15.0886 6.22541 15.0675 6.5122 15.0639C6.72297 15.0639 6.9061 15.085 7.03049 15.1237C7.13415 15.1554 7.32073 15.2503 7.44512 15.3347C7.59024 15.4332 7.76301 15.5984 7.92886 15.8059C8.07053 15.9817 8.28821 16.2489 8.4126 16.4001C8.53699 16.5513 8.6752 16.706 8.72358 16.7412C8.78577 16.7904 8.86524 16.808 9 16.808C9.13476 16.808 9.21423 16.7904 9.27642 16.7412C9.3248 16.706 9.46301 16.5513 9.5874 16.4001C9.71179 16.2489 9.92947 15.9817 10.0711 15.8059C10.237 15.5984 10.4098 15.4332 10.5549 15.3347C10.6793 15.2503 10.8659 15.1554 10.9695 15.1237C11.0939 15.085 11.277 15.0639 11.4878 15.0639C11.7746 15.0675 11.899 15.0886 12.4726 15.2503C12.8319 15.3523 13.1774 15.4332 13.2327 15.4332C13.288 15.4332 13.3986 15.398 13.4711 15.3523C13.5472 15.3101 13.6335 15.2187 13.6681 15.1519C13.7199 15.0534 13.7407 14.8811 13.7683 14.3255C13.789 13.9388 13.8201 13.5414 13.8409 13.4465C13.8581 13.348 13.9203 13.1722 13.9756 13.0491C14.0343 12.9296 14.1518 12.7503 14.2451 12.6483C14.335 12.5498 14.487 12.4197 14.5803 12.3565C14.677 12.2932 15.0502 12.1279 15.4096 11.9872C15.7689 11.8466 16.1041 11.6989 16.1455 11.6567C16.1904 11.618 16.2526 11.5337 16.2803 11.4774C16.3171 11.4071 16.3298 11.3133 16.3183 11.1961C16.3045 11.0449 16.2457 10.9359 15.8967 10.3874C15.6376 9.97948 15.4683 9.67357 15.4199 9.52589C15.3646 9.36414 15.3439 9.20942 15.3439 8.99845C15.3439 8.78748 15.3646 8.63276 15.4199 8.47102C15.4683 8.32333 15.6376 8.01742 15.8967 7.60954C16.2457 7.06101 16.3045 6.95201 16.3183 6.80081C16.3298 6.6836 16.3171 6.58983 16.2803 6.51951C16.2526 6.45973 16.1904 6.37886 16.1455 6.34018C16.1041 6.29799 15.7689 6.1503 15.4096 6.00966C15.0502 5.86901 14.6736 5.70374 14.5803 5.64045C14.487 5.57716 14.335 5.44706 14.2451 5.3486C14.1518 5.24663 14.0343 5.06731 13.9756 4.94424C13.9203 4.82469 13.8581 4.64536 13.8409 4.55042C13.8201 4.45197 13.789 4.05815 13.7683 3.67136C13.7407 3.1158 13.7199 2.9435 13.6681 2.84505C13.6335 2.77824 13.5472 2.68682 13.4711 2.64462C13.3986 2.59891 13.288 2.56375 13.2327 2.56375C13.1774 2.56375 12.8319 2.64814 12.4726 2.74659C11.899 2.90834 11.7746 2.92944 11.4878 2.93295C11.2805 2.93295 11.0904 2.91186 10.9695 2.87318C10.8659 2.84153 10.6793 2.74659 10.5549 2.6622C10.4098 2.56375 10.237 2.39849 10.0711 2.19103C9.92947 2.01522 9.71179 1.74798 9.5874 1.59679C9.46301 1.44559 9.3248 1.29439 9.27642 1.25923C9.22805 1.22407 9.13476 1.1889 9.06911 1.17835C9.00346 1.16781 8.90325 1.17484 8.84451 1.19594C8.78577 1.21352 8.70285 1.26274 8.65793 1.30846ZM9.00691 3.69598C9.13476 3.70301 9.23496 3.73114 9.30061 3.78037C9.35244 3.81904 9.43191 3.92101 9.47683 4.00892C9.54248 4.14254 9.55285 4.21989 9.55285 4.91962L9.7187 4.94072C9.80854 4.95479 9.9813 4.99698 10.1057 5.04269C10.2301 5.08489 10.4167 5.16576 10.5203 5.2185C10.624 5.27125 10.8037 5.38025 10.9177 5.46464C11.0317 5.54551 11.2079 5.70726 11.3081 5.81978C11.4118 5.93933 11.5604 6.16437 11.6467 6.3437C11.7573 6.57577 11.8126 6.734 11.8402 6.94146C11.8748 7.18408 11.8748 7.24385 11.8264 7.38099C11.7953 7.46889 11.7228 7.58141 11.664 7.63415C11.6053 7.69041 11.4947 7.74667 11.4187 7.76777C11.322 7.79238 11.2356 7.79238 11.1354 7.76425C11.0524 7.74316 10.9384 7.67283 10.8797 7.61306C10.8209 7.55328 10.7553 7.44076 10.7311 7.3634C10.7104 7.28605 10.6931 7.17353 10.6931 7.11727C10.6931 7.05749 10.662 6.94497 10.624 6.86058C10.586 6.77971 10.4892 6.64609 10.4098 6.5617C10.3234 6.47731 10.1333 6.34721 9.96748 6.26282C9.80508 6.17843 9.64614 6.11514 9.61504 6.11514C9.5563 6.11514 9.55285 6.1925 9.55285 8.41827L9.8189 8.48508C9.96748 8.52024 10.2059 8.60112 10.3476 8.66089C10.4892 8.72418 10.7069 8.84374 10.8313 8.92813C10.9557 9.01252 11.1423 9.17075 11.2459 9.28327C11.3496 9.39227 11.4913 9.57511 11.5569 9.68763C11.6226 9.80367 11.7159 9.99706 11.7608 10.1236C11.8264 10.303 11.8437 10.426 11.8472 10.7038C11.8506 10.9886 11.8333 11.1047 11.7642 11.3192C11.7193 11.4633 11.6087 11.6919 11.5189 11.829C11.4291 11.9661 11.2667 12.1595 11.1561 12.265C11.0421 12.3705 10.89 12.4936 10.814 12.5428C10.738 12.592 10.5687 12.687 10.4339 12.7538C10.2992 12.8206 10.0504 12.912 9.57012 13.0351L9.55285 13.4535C9.53557 13.8438 9.52866 13.8825 9.43882 14.002C9.38699 14.0724 9.2937 14.1568 9.2315 14.1884C9.15549 14.2271 9.06219 14.2412 8.93089 14.2306C8.81341 14.2236 8.69939 14.1884 8.6372 14.1462C8.57845 14.104 8.50589 14.0161 8.47134 13.9423C8.42642 13.8473 8.4126 13.7243 8.4126 13.0421L8.31585 13.021C8.26402 13.0105 8.09126 12.9612 7.92886 12.912C7.76646 12.8628 7.55569 12.7819 7.4624 12.7362C7.36565 12.687 7.1998 12.585 7.08923 12.5112C6.98211 12.4338 6.80589 12.2826 6.69878 12.1701C6.59167 12.0611 6.45346 11.8818 6.39126 11.7763C6.32561 11.6708 6.23923 11.4879 6.20122 11.3719C6.15976 11.2559 6.11829 11.0343 6.10793 10.8796C6.09411 10.6651 6.10102 10.5737 6.14248 10.4928C6.17012 10.4366 6.24268 10.3381 6.30488 10.2819C6.39817 10.194 6.44655 10.1729 6.62622 10.1658C6.80589 10.1553 6.86118 10.1658 6.95793 10.2362C7.02358 10.2784 7.1065 10.3557 7.14106 10.4049C7.17561 10.4542 7.22053 10.5983 7.2378 10.7284C7.25854 10.8621 7.3 11.0273 7.33801 11.0976C7.37256 11.1715 7.48313 11.3051 7.57988 11.3965C7.67663 11.4915 7.85285 11.611 7.97032 11.6708C8.09126 11.727 8.23984 11.7868 8.41606 11.829L8.39533 9.51534L8.08435 9.43095C7.91504 9.38524 7.6939 9.3114 7.60061 9.2692C7.50386 9.22701 7.33455 9.1391 7.22053 9.07229C7.1065 9.00548 6.88882 8.82264 6.73679 8.66441C6.54675 8.47453 6.41545 8.30224 6.33252 8.13697C6.26341 7.99984 6.18049 7.7959 6.15285 7.67986C6.12175 7.56383 6.09756 7.34934 6.09756 7.20517C6.09756 7.06101 6.12175 6.85003 6.14939 6.73751C6.17703 6.62851 6.2565 6.42457 6.32215 6.29095C6.39472 6.13976 6.53293 5.94636 6.67459 5.79517C6.80589 5.65803 7.00976 5.47519 7.13415 5.39432C7.25854 5.30993 7.45203 5.20092 7.56606 5.14818C7.68008 5.09544 7.91504 5.01808 8.39533 4.89149L8.4126 4.46955C8.42642 4.11089 8.44024 4.03002 8.50244 3.94563C8.54045 3.89288 8.62683 3.8085 8.69248 3.7663C8.78923 3.69598 8.84451 3.68543 9.00691 3.69598ZM7.7561 6.38238C7.66972 6.44215 7.54878 6.55115 7.49004 6.62148C7.42785 6.6918 7.34837 6.80081 7.31728 6.86058C7.27927 6.93442 7.25854 7.05749 7.25508 7.20517C7.25508 7.38802 7.27236 7.46537 7.34492 7.59196C7.39675 7.67986 7.50386 7.81348 7.59024 7.89084C7.67663 7.9682 7.84248 8.08072 7.96687 8.14401C8.08781 8.2073 8.23984 8.27059 8.30203 8.28466L8.4126 8.31279C8.4126 6.1925 8.40915 6.11514 8.35386 6.11514C8.31931 6.11514 8.20528 6.15382 8.10163 6.19602C7.99797 6.24173 7.84248 6.32612 7.7561 6.38238ZM9.55285 11.829C9.72561 11.7868 9.87764 11.7235 9.99858 11.6602C10.123 11.5969 10.2957 11.4774 10.3856 11.3895C10.4754 11.3016 10.5825 11.1609 10.6205 11.073C10.662 10.9781 10.6931 10.841 10.6931 10.7284C10.6931 10.63 10.6689 10.4893 10.6413 10.4225C10.6136 10.3557 10.5065 10.2115 10.4098 10.1061C10.2888 9.97596 10.1437 9.87048 9.98476 9.7896C9.85 9.72279 9.70142 9.6595 9.65305 9.64895L9.56321 9.62434L9.55285 11.829Z" fill="#A9DFD8"/>
</svg>
