<svg width="22" height="22" viewBox="0 0 22 22" fill="none" xmlns="http://www.w3.org/2000/svg">
<circle cx="11" cy="11" r="11" fill="#A9DFD8"/>
<path d="M14.6518 9.87837C15.1132 9.41697 15.1132 8.6689 14.6518 8.2075C14.1904 7.74611 13.4424 7.74611 12.981 8.2075L8.8038 12.3847C8.34241 12.8461 8.34241 13.5941 8.80381 14.0555C9.2652 14.5169 10.0133 14.5169 10.4747 14.0555L14.6518 9.87837Z" fill="#1C1D23"/>
<path d="M8.80425 14.0561C9.26564 14.5175 10.0137 14.5175 10.4751 14.0561C10.9365 13.5947 10.9365 12.8467 10.4751 12.3853L7.96881 9.87897C7.50742 9.41757 6.75934 9.41757 6.29795 9.87897C5.83655 10.3404 5.83655 11.0884 6.29795 11.5498L8.80425 14.0561Z" fill="#1C1D23"/>
</svg>
