<svg width="19" height="18" viewBox="0 0 19 18" fill="none" xmlns="http://www.w3.org/2000/svg">
<path fill-rule="evenodd" clip-rule="evenodd" d="M12.1191 0.000483901C12.4145 -0.00303232 12.5164 0.0110326 12.752 0.0954218C12.9066 0.148165 13.1281 0.246619 13.2406 0.313427C13.3531 0.380235 13.543 0.538465 13.659 0.665049C13.7785 0.791633 13.9262 0.988541 13.9895 1.10458C14.0527 1.22061 14.1336 1.44213 14.1758 1.59685C14.2145 1.75156 14.2461 1.93089 14.2461 2.1067H16.3906V4.25159H16.5031C16.5664 4.25159 16.7457 4.28324 16.9004 4.32192C17.0551 4.36411 17.2766 4.44498 17.3926 4.50827C17.5156 4.57157 17.716 4.7298 17.8672 4.88451C18.0219 5.03571 18.1801 5.23613 18.2434 5.3592C18.3066 5.47523 18.3875 5.69676 18.4297 5.85147C18.4684 6.00618 18.5 6.23474 18.5 6.36132C18.5 6.4879 18.4684 6.71646 18.4297 6.87117C18.3875 7.02589 18.3066 7.24741 18.2434 7.36344C18.1801 7.48651 18.0219 7.68693 17.8672 7.83813C17.716 7.99285 17.5156 8.15108 17.3926 8.21437C17.2766 8.27766 17.0551 8.35853 16.9004 8.40073C16.7457 8.43941 16.5664 8.47105 16.3906 8.47105L16.3766 9.67711C16.366 10.6933 16.352 10.943 16.2922 11.3016C16.25 11.5337 16.1762 11.8818 16.127 12.0752C16.0742 12.2686 15.9793 12.578 15.9125 12.7608C15.8422 12.9437 15.6875 13.3023 15.5645 13.552C15.4414 13.8016 15.227 14.1849 15.0828 14.3959C14.9422 14.6104 14.7242 14.9092 14.5977 15.064C14.4711 15.2187 14.2285 15.4894 14.0527 15.6617C13.8805 15.8375 13.5852 16.1012 13.4023 16.2489C13.2195 16.3966 12.9172 16.6146 12.7344 16.7342C12.5516 16.8537 12.1789 17.0577 11.9082 17.1913C11.6375 17.3214 11.2578 17.4866 11.0645 17.5534C10.8711 17.6202 10.5477 17.7152 10.3438 17.7644C10.1398 17.8172 9.76016 17.8875 9.5 17.9297C9.1625 17.9789 8.85312 18 8.43477 18C8.02344 18 7.71406 17.9789 7.40117 17.9297C7.15156 17.891 6.83867 17.8347 6.70508 17.8031C6.57148 17.7714 6.30078 17.6976 6.10742 17.6413C5.91406 17.5816 5.58359 17.462 5.36914 17.3706C5.15469 17.2792 4.8418 17.128 4.66602 17.033C4.49023 16.9381 4.19844 16.7588 4.01562 16.6357C3.83281 16.5091 3.56211 16.3122 3.41797 16.1927C3.27383 16.0766 3.01016 15.834 2.83789 15.6617C2.66211 15.4894 2.42305 15.2257 2.30352 15.0815C2.1875 14.9374 1.99063 14.6666 1.86406 14.4838C1.74102 14.3009 1.56172 14.0056 1.4668 13.8333C1.37187 13.661 1.21719 13.334 1.12227 13.1125C1.02734 12.8909 0.900781 12.5358 0.833984 12.3213C0.770703 12.1068 0.686328 11.7622 0.644141 11.5477C0.605469 11.3333 0.55625 10.9887 0.535156 10.7742C0.517578 10.5597 0.5 10.2362 0.5 10.0533C0.5 9.87051 0.517578 9.53646 0.538672 9.31494C0.559766 9.09342 0.6125 8.7207 0.661719 8.48863C0.707422 8.25656 0.788281 7.93307 0.8375 7.76781C0.886719 7.60255 0.992188 7.3107 1.06953 7.11731C1.14688 6.92392 1.29102 6.60746 1.38945 6.41406C1.48789 6.22067 1.68125 5.89718 1.81836 5.69324C1.95195 5.4893 2.16641 5.19745 2.29297 5.04274C2.41602 4.88803 2.66211 4.61728 2.83789 4.44498C3.01016 4.26917 3.28086 4.02304 3.43555 3.89997C3.59023 3.77339 3.88906 3.55538 4.10352 3.41473C4.31445 3.27057 4.69414 3.05608 4.94727 2.93301C5.20039 2.80994 5.55547 2.65523 5.73828 2.5849C5.92109 2.5181 6.23047 2.42316 6.42383 2.37041C6.61719 2.32119 6.96523 2.24735 7.19727 2.20515C7.55586 2.14538 7.80547 2.13131 10.0273 2.1067V1.99066C10.0273 1.93089 10.059 1.75156 10.0977 1.59685C10.1398 1.44213 10.2207 1.22061 10.284 1.10458C10.3473 0.988541 10.4949 0.791633 10.6145 0.665049C10.7305 0.538465 10.9203 0.380235 11.0328 0.313427C11.1453 0.246619 11.3562 0.148165 11.5039 0.0954218C11.7184 0.0215812 11.8344 0.00400012 12.1191 0.000483901ZM11.5039 1.26281C11.4371 1.31203 11.3387 1.414 11.2824 1.49136C11.2297 1.56872 11.1594 1.70937 11.1312 1.80782C11.1031 1.90276 11.082 2.04341 11.082 2.11373C11.082 2.18757 11.1523 2.44777 11.2402 2.69391C11.3281 2.94356 11.3984 3.1475 11.3984 3.15101C11.3984 3.15805 10.8535 3.16156 10.1855 3.16156H8.97266V4.25159C9.14844 4.25159 9.32773 4.28324 9.48242 4.32192C9.63711 4.36411 9.85859 4.44498 9.97461 4.50827C10.0977 4.57157 10.298 4.7298 10.4492 4.88451C10.6039 5.03571 10.7621 5.23613 10.8254 5.3592C10.8887 5.47523 10.9695 5.69676 11.0117 5.85147C11.0504 6.00618 11.082 6.23474 11.082 6.36132C11.082 6.4879 11.0504 6.71646 11.0117 6.87117C10.9695 7.02589 10.8887 7.24741 10.8254 7.36344C10.7621 7.48651 10.6039 7.68693 10.4492 7.83813C10.298 7.99285 10.0977 8.15108 9.97461 8.21437C9.85859 8.27766 9.63711 8.35853 9.48242 8.40073C9.32773 8.43941 9.14844 8.47105 9.08516 8.47105H8.97266V9.52592H11.3984C11.0926 10.3804 11.0785 10.4436 11.0961 10.6511C11.1066 10.7918 11.1453 10.9465 11.2016 11.0555C11.2473 11.1539 11.3457 11.284 11.423 11.3508C11.4969 11.4176 11.627 11.5055 11.7148 11.5442C11.8309 11.597 11.9469 11.6181 12.1367 11.6181C12.3266 11.6181 12.4426 11.597 12.5586 11.5442C12.6465 11.5055 12.7766 11.4176 12.8504 11.3508C12.9277 11.284 13.0262 11.1504 13.0719 11.0555C13.1281 10.9465 13.1668 10.7918 13.1773 10.6511C13.1949 10.4436 13.1809 10.3804 13.0367 9.97248L12.875 9.52592H15.3359C15.3359 7.64474 15.3395 7.09973 15.343 7.09973C15.35 7.09973 15.5609 7.17005 15.8105 7.26147C16.2184 7.40564 16.2887 7.4197 16.4785 7.40212C16.5945 7.39157 16.7668 7.34586 16.8652 7.29663C16.9602 7.25092 17.0938 7.15247 17.1605 7.07511C17.2273 7.00127 17.3152 6.87117 17.3539 6.78327C17.4066 6.67075 17.4277 6.5512 17.4277 6.36132C17.4277 6.14683 17.4102 6.06244 17.3328 5.90421C17.2836 5.79873 17.1816 5.65808 17.1043 5.59127C17.0305 5.52446 16.9004 5.44007 16.8125 5.40139C16.7246 5.36272 16.5664 5.32404 16.4609 5.317C16.2957 5.30294 16.2008 5.32404 15.8105 5.46117C15.5609 5.55259 15.35 5.62292 15.343 5.62292C15.3395 5.62292 15.3359 5.07087 15.3359 4.39224V3.16156C13.427 3.16156 12.875 3.15805 12.875 3.15453C12.875 3.1475 12.9453 2.94004 13.0367 2.68687C13.1738 2.29657 13.1949 2.20164 13.1809 2.03637C13.1738 1.93089 13.1352 1.77266 13.0965 1.68475C13.0578 1.59685 12.9734 1.46675 12.9066 1.39291C12.8398 1.31555 12.7063 1.2171 12.6113 1.17138C12.5023 1.11512 12.3512 1.07645 12.207 1.0659C12.0418 1.05535 11.9293 1.0659 11.8027 1.11161C11.7043 1.14677 11.5707 1.21358 11.5039 1.26281ZM6.51172 3.44638C6.30781 3.50615 6.00898 3.60812 5.84375 3.67845C5.67852 3.74526 5.39375 3.87887 5.21094 3.97733C5.02812 4.07578 4.76445 4.23049 4.63086 4.32192C4.49727 4.41334 4.26523 4.58212 4.12109 4.69815C3.97695 4.81419 3.72383 5.04274 3.56211 5.20449C3.40039 5.36623 3.17188 5.62643 3.04883 5.78115C2.9293 5.93586 2.74297 6.19606 2.63398 6.36132C2.52852 6.52658 2.35273 6.84304 2.24375 7.06456C2.13828 7.28609 1.98711 7.6588 1.90977 7.89088C1.83242 8.12295 1.7375 8.47105 1.69883 8.66444C1.66016 8.85783 1.61445 9.1321 1.60039 9.27275L1.57227 9.52592H2.64453C2.64453 9.35011 2.67617 9.17078 2.71484 9.01606C2.75703 8.86135 2.83789 8.63983 2.90117 8.52379C2.96445 8.40073 3.12266 8.2003 3.27734 8.04911C3.42852 7.89439 3.62891 7.73616 3.75195 7.67287C3.86797 7.60958 4.08945 7.52871 4.24414 7.48651C4.39883 7.44783 4.62734 7.41619 4.75391 7.41619C4.88047 7.41619 5.10898 7.44783 5.26367 7.48651C5.41836 7.52871 5.63984 7.60958 5.75586 7.67287C5.87891 7.73616 6.0793 7.89439 6.23047 8.04911C6.38516 8.2003 6.54336 8.40073 6.60664 8.52379C6.66992 8.63983 6.75078 8.86135 6.79297 9.01606C6.83164 9.17078 6.86328 9.35011 6.86328 9.4134V9.52592H7.91797V7.09973C8.75469 7.3986 8.84258 7.4197 9.02539 7.40564C9.14141 7.39861 9.30664 7.35993 9.39453 7.32125C9.48242 7.28257 9.6125 7.19818 9.68633 7.13137C9.76367 7.06456 9.86562 6.92392 9.91484 6.81843C9.99219 6.6602 10.0098 6.57581 10.0098 6.36132C10.0098 6.14683 9.99219 6.06244 9.91484 5.90421C9.86562 5.79873 9.76367 5.65808 9.68633 5.59127C9.6125 5.52446 9.48242 5.44007 9.39453 5.40139C9.30664 5.36272 9.14141 5.32404 9.02539 5.317C8.84258 5.30294 8.75469 5.32404 8.36445 5.46117L7.91797 5.62292V3.19673C7.68594 3.20024 7.45391 3.23189 7.25 3.27057C7.04609 3.30573 6.71562 3.38309 6.51172 3.44638ZM4.12109 8.68202C4.0543 8.73125 3.95586 8.83322 3.89961 8.91058C3.84687 8.98794 3.77656 9.12858 3.74844 9.22704C3.72031 9.32198 3.69922 9.46614 3.69922 9.5435C3.69922 9.62085 3.76953 9.88457 3.85742 10.1342L4.01562 10.5808H1.57227C1.61445 10.9746 1.66016 11.2489 1.69883 11.4423C1.7375 11.6356 1.83242 11.9838 1.90977 12.2158C1.98711 12.4479 2.13828 12.8206 2.24375 13.0421C2.35273 13.2637 2.52852 13.5801 2.63398 13.7454C2.74297 13.9106 2.9293 14.1708 3.04883 14.3256C3.16836 14.4803 3.425 14.7616 3.61484 14.9479C3.8082 15.1378 4.05781 15.3628 4.17383 15.4543C4.28984 15.5457 4.52539 15.7145 4.70117 15.8305C4.87695 15.943 5.20742 16.1329 5.43945 16.2454C5.67148 16.3579 6.05117 16.5126 6.2832 16.59C6.51523 16.6674 6.87031 16.7623 7.07422 16.801C7.27812 16.8432 7.54883 16.8889 7.68242 16.9029L7.91797 16.9276V15.8551C7.74219 15.8551 7.56289 15.8235 7.4082 15.7848C7.25352 15.7426 7.03203 15.6617 6.91602 15.5984C6.79297 15.5351 6.59258 15.3769 6.44141 15.2222C6.28672 15.071 6.12852 14.8706 6.06523 14.7475C6.00195 14.6315 5.92109 14.4099 5.87891 14.2552C5.84023 14.1005 5.80859 13.872 5.80859 13.7454C5.80859 13.6188 5.84023 13.3902 5.87891 13.2355C5.92109 13.0808 6.00195 12.8593 6.06523 12.7433C6.12852 12.6202 6.28672 12.4198 6.44141 12.2686C6.59258 12.1139 6.79297 11.9556 6.91602 11.8923C7.03203 11.829 7.25352 11.7482 7.4082 11.706C7.56289 11.6673 7.74219 11.6356 7.80195 11.6356H7.91797V10.5808H5.49219C5.79102 9.74392 5.81211 9.65602 5.79805 9.47317C5.79102 9.35714 5.75234 9.19188 5.71367 9.10397C5.675 9.01606 5.59062 8.88597 5.52383 8.81213C5.45703 8.73477 5.32344 8.63631 5.22852 8.5906C5.11953 8.53434 4.96836 8.49567 4.82422 8.48512C4.65898 8.47457 4.54648 8.48512 4.41992 8.53083C4.325 8.56599 4.18789 8.6328 4.12109 8.68202ZM8.97266 13.007C8.13594 12.7081 8.04805 12.687 7.86523 12.7011C7.74922 12.7081 7.58398 12.7468 7.49609 12.7854C7.4082 12.8241 7.27812 12.9085 7.2043 12.9753C7.12695 13.0421 7.025 13.1828 6.97578 13.2883C6.89844 13.4465 6.88086 13.5309 6.88086 13.7454C6.88086 13.9599 6.89844 14.0443 6.97578 14.2025C7.025 14.308 7.12695 14.4486 7.2043 14.5154C7.27812 14.5822 7.4082 14.6666 7.49609 14.7053C7.58398 14.744 7.74922 14.7827 7.86523 14.7897C8.04805 14.8038 8.13594 14.7827 8.52617 14.6455L8.97266 14.4838V16.9276C9.36641 16.8854 9.64062 16.8396 9.83398 16.801C10.0273 16.7623 10.3754 16.6674 10.6074 16.59C10.8395 16.5126 11.2121 16.3614 11.4336 16.256C11.6551 16.147 11.9715 15.9711 12.1367 15.8657C12.302 15.7567 12.5621 15.5703 12.7168 15.4507C12.8715 15.3312 13.1527 15.0745 13.3391 14.8846C13.5289 14.6912 13.7539 14.4416 13.8453 14.3256C13.9367 14.2095 14.109 13.9634 14.232 13.7805C14.3516 13.5977 14.5379 13.2637 14.6469 13.0421C14.7523 12.8206 14.9035 12.4479 14.9809 12.2158C15.0582 11.9838 15.1531 11.6356 15.1918 11.4423C15.2305 11.2489 15.2762 10.9746 15.2902 10.834L15.3184 10.5808H14.2461C14.2461 10.7566 14.2145 10.9359 14.1758 11.0906C14.1336 11.2453 14.0527 11.4669 13.9895 11.5829C13.9262 11.7025 13.7645 11.9064 13.6133 12.0576C13.4621 12.2088 13.2582 12.3705 13.1387 12.4338C13.0227 12.4971 12.8012 12.578 12.6465 12.6202C12.4918 12.6589 12.2633 12.6905 12.1367 12.6905C12.0102 12.6905 11.7816 12.6589 11.627 12.6202C11.4723 12.578 11.2508 12.4971 11.1348 12.4338C11.0117 12.3705 10.8113 12.2123 10.6602 12.0576C10.5055 11.9064 10.3473 11.706 10.284 11.5829C10.2207 11.4669 10.1398 11.2453 10.0977 11.0906C10.059 10.9359 10.0273 10.7566 10.0273 10.6933V10.5808H8.97266V13.007Z" fill="#A9DFD8"/>
</svg>
