<svg width="18" height="16" viewBox="0 0 18 16" fill="none" xmlns="http://www.w3.org/2000/svg">
<path d="M13.9321 6.0665C13.7162 5.85734 13.6171 5.55484 13.6662 5.25817L14.4071 1.15817C14.4696 0.810672 14.3229 0.459003 14.0321 0.25817C13.7471 0.0498371 13.3679 0.0248365 13.057 0.191504L9.36622 2.1165C9.23788 2.18484 9.09538 2.2215 8.94955 2.22567H8.72372C8.64538 2.214 8.56872 2.189 8.49872 2.15067L4.80705 0.216504C4.62455 0.124838 4.41788 0.0923367 4.21538 0.124837C3.72205 0.21817 3.39288 0.68817 3.47372 1.184L4.21538 5.284C4.26455 5.58317 4.16538 5.88734 3.94955 6.09984L0.940384 9.0165C0.688717 9.26067 0.601217 9.62734 0.716217 9.95817C0.827884 10.2882 1.11288 10.529 1.45705 10.5832L5.59872 11.184C5.91372 11.2165 6.19038 11.4082 6.33205 11.6915L8.15705 15.4332C8.20038 15.5165 8.25622 15.5932 8.32372 15.6582L8.39872 15.7165C8.43788 15.7598 8.48288 15.7957 8.53288 15.8248L8.62372 15.8582L8.76538 15.9165H9.11622C9.42955 15.884 9.70538 15.6965 9.84955 15.4165L11.6987 11.6915C11.8321 11.419 12.0912 11.2298 12.3904 11.184L16.5321 10.5832C16.882 10.5332 17.1745 10.2915 17.2904 9.95817C17.3995 9.624 17.3054 9.25734 17.0487 9.0165L13.9321 6.0665Z" fill="#A9DFD8"/>
</svg>
