<svg width="18" height="18" viewBox="0 0 18 18" fill="none" xmlns="http://www.w3.org/2000/svg">
<path fill-rule="evenodd" clip-rule="evenodd" d="M8.92755 0C9.80666 0 10.6998 0.0105489 10.9143 0.0316468C11.1288 0.0492284 11.5473 0.0808752 11.8462 0.101973C12.1451 0.123071 12.6058 0.16175 12.866 0.193397C13.1262 0.221528 13.5868 0.284821 13.8857 0.33405C14.1846 0.383278 14.5504 0.464153 14.6945 0.513382C14.8387 0.559094 15.0849 0.664583 15.2396 0.741942C15.3943 0.819301 15.6405 0.96347 15.7846 1.06193C15.9288 1.16038 16.2066 1.39598 16.4 1.58234C16.5934 1.7687 16.8431 2.04649 16.9521 2.1977C17.0611 2.35241 17.2158 2.60207 17.2932 2.75679C17.3741 2.91151 17.476 3.15765 17.5218 3.30182C17.5675 3.44599 17.6378 3.74136 17.68 3.95233C17.7187 4.16331 17.7749 4.50088 17.8066 4.70131C17.8347 4.89822 17.891 5.39051 17.9297 5.7984C17.9824 6.33639 18 6.80406 18 7.53194C18 8.24927 17.9789 8.73452 17.9297 9.27955C17.891 9.69447 17.8347 10.2008 17.8031 10.4048C17.7749 10.6087 17.7117 10.9639 17.6659 11.1959C17.6202 11.428 17.5358 11.7515 17.476 11.9168C17.4128 12.082 17.3108 12.3106 17.2475 12.4266C17.1807 12.5427 17.033 12.7642 16.9204 12.9189C16.8044 13.0736 16.6005 13.3092 16.4668 13.4464C16.3332 13.5835 16.1046 13.7804 15.9605 13.8894C15.8163 13.9984 15.5877 14.1496 15.4506 14.227C15.3134 14.3008 15.0849 14.4134 14.9407 14.4731C14.7965 14.5329 14.575 14.6068 14.4484 14.6384C14.3218 14.6701 14.0053 14.7263 13.7451 14.7615C13.4849 14.8002 12.9152 14.867 12.4792 14.9056C12.0431 14.9478 11.6844 14.983 11.6844 14.9865C11.6809 14.99 11.5473 15.201 11.382 15.4507C11.2203 15.7003 10.953 16.0977 10.7913 16.3298C10.6295 16.5618 10.3658 16.924 10.2075 17.1385C10.0493 17.353 9.84183 17.5956 9.7504 17.68C9.65545 17.7679 9.4937 17.8734 9.39524 17.9191C9.26864 17.9754 9.14205 18 8.99788 18C8.84667 18 8.73414 17.9754 8.60403 17.9156C8.50206 17.8664 8.34733 17.7679 8.26294 17.6941C8.17854 17.6202 7.94646 17.346 7.75305 17.0858C7.55613 16.8256 7.15525 16.2454 6.85635 15.8023C6.56097 15.3593 6.31482 14.99 6.3113 14.9865C6.3113 14.983 6.02999 14.9549 5.69241 14.9232C5.35483 14.8951 4.78516 14.8318 4.42648 14.7826C4.06781 14.7369 3.63528 14.656 3.45946 14.6068C3.28715 14.5575 2.99177 14.445 2.80891 14.3571C2.62606 14.2692 2.35529 14.1145 2.21112 14.016C2.06694 13.914 1.79969 13.689 1.62035 13.5167C1.4375 13.3444 1.19486 13.0736 1.07882 12.9189C0.962776 12.7642 0.77992 12.4653 0.677943 12.2508C0.572449 12.0363 0.459923 11.7445 0.421242 11.6003C0.386077 11.4561 0.315748 11.0975 0.266518 10.8091C0.217287 10.5173 0.150475 10.0602 0.122343 9.78941C0.0942115 9.51866 0.052014 9.10021 0.0273988 8.85759C0.00278364 8.57277 -0.00776573 8.02422 0.00630009 7.31041C0.013333 6.70209 0.0414646 6.01993 0.0625634 5.7984C0.0836621 5.57687 0.12586 5.20414 0.157508 4.97206C0.185639 4.73999 0.248935 4.33561 0.298166 4.07541C0.34388 3.8152 0.417725 3.48818 0.456406 3.35456C0.498604 3.22094 0.593548 2.98183 0.67091 2.82711C0.748272 2.6724 0.881897 2.43329 0.973325 2.29967C1.06124 2.16253 1.31794 1.87068 1.53947 1.64563C1.76453 1.42059 2.06694 1.15687 2.21112 1.06193C2.35529 0.96347 2.60496 0.819301 2.76672 0.738425C2.92496 0.661067 3.17111 0.555577 3.31177 0.509865C3.44891 0.464153 3.8111 0.383278 4.11 0.33405C4.4089 0.284821 4.86956 0.221528 5.12978 0.193397C5.38999 0.16175 5.85768 0.123071 6.16713 0.0984567C6.47658 0.0773589 6.86339 0.0492284 7.02866 0.0351631C7.19393 0.0175816 8.04843 0.00351631 8.92755 0V0ZM5.46384 1.5085C5.21065 1.5296 4.84143 1.57179 4.63747 1.59992C4.43352 1.62805 4.16275 1.67376 4.03264 1.70189C3.89902 1.73003 3.70209 1.7898 3.59308 1.832C3.48056 1.87419 3.28012 1.97265 3.14649 2.05001C3.01639 2.13089 2.79485 2.28912 2.65419 2.40516C2.51705 2.52471 2.30958 2.74624 2.19002 2.89744C2.07398 3.05216 1.9298 3.28072 1.87002 3.40731C1.80673 3.53389 1.73288 3.73081 1.70475 3.84685C1.6731 3.96288 1.6098 4.29693 1.56057 4.58527C1.51134 4.87712 1.44805 5.34128 1.41992 5.62258C1.38827 5.90389 1.3531 6.56144 1.34255 7.08185C1.332 7.66908 1.33904 8.28091 1.36365 8.68177C1.38827 9.04044 1.4375 9.58195 1.47266 9.88787C1.51134 10.1903 1.58167 10.6333 1.62739 10.8724C1.6731 11.108 1.74695 11.3893 1.78914 11.4948C1.83134 11.6003 1.91222 11.7691 1.972 11.864C2.03178 11.9625 2.16189 12.1418 2.26035 12.2649C2.35881 12.3915 2.54518 12.5814 2.67177 12.6869C2.80188 12.7959 3.01639 12.9471 3.14649 13.0279C3.28012 13.1088 3.50166 13.2108 3.63528 13.26C3.76891 13.3092 4.03264 13.376 4.2155 13.4077C4.39835 13.4358 4.76406 13.4851 5.02428 13.5132C5.2845 13.5448 5.71351 13.5835 5.97372 13.6046C6.23394 13.6257 6.51526 13.6609 6.59965 13.6785C6.68053 13.696 6.82119 13.7488 6.91613 13.7945C7.00756 13.8402 7.13767 13.9316 7.20448 13.9984C7.2713 14.0617 7.57723 14.4872 7.87964 14.9408C8.18206 15.3944 8.55832 15.9394 8.71304 16.1539L8.99436 16.5407C9.41282 15.9676 9.78556 15.4225 10.095 14.9584C10.4009 14.4942 10.7139 14.0617 10.7842 13.9949C10.8546 13.9316 11.0093 13.8297 11.1253 13.7769C11.3047 13.689 11.4172 13.6679 11.899 13.6222C12.2084 13.5941 12.6831 13.5448 12.9539 13.5132C13.2247 13.4851 13.5904 13.4358 13.7627 13.4077C13.935 13.3796 14.16 13.3303 14.255 13.2987C14.3534 13.2706 14.5504 13.1827 14.6945 13.1088C14.8387 13.035 15.0849 12.8732 15.2396 12.7466C15.3943 12.6236 15.5842 12.4477 15.6651 12.3528C15.7424 12.2579 15.8585 12.1031 15.9253 12.0047C15.9921 11.9097 16.0976 11.7199 16.1574 11.5827C16.2207 11.4456 16.3051 11.1784 16.3438 10.985C16.3824 10.7916 16.4457 10.4118 16.4844 10.141C16.5231 9.87029 16.5758 9.4413 16.6005 9.19164C16.6286 8.91385 16.6462 8.2563 16.6426 7.52139C16.6426 6.6177 16.6251 6.15355 16.5794 5.71049C16.5442 5.38347 16.4774 4.87712 16.4317 4.58527C16.3824 4.29693 16.3191 3.96288 16.291 3.84685C16.2594 3.73081 16.182 3.52686 16.1152 3.38972C16.0519 3.2561 15.8901 3.00996 15.76 2.8447C15.6264 2.67943 15.3943 2.44384 15.2361 2.31725C15.0778 2.19066 14.8176 2.02188 14.6559 1.941C14.4941 1.86013 14.2268 1.76167 14.0616 1.72299C13.8963 1.68431 13.5095 1.62102 13.2 1.58234C12.8906 1.54366 12.4159 1.49443 12.1451 1.46982C11.8673 1.44872 10.6365 1.42762 9.31436 1.42059C8.02733 1.41356 6.73679 1.42411 6.44845 1.43817C6.1601 1.45575 5.71702 1.4874 5.46384 1.5085ZM6.12493 2.95019C6.21636 2.95019 6.3324 2.97128 6.38867 2.99941C6.44141 3.02403 6.53284 3.10842 6.59262 3.18226C6.6524 3.25962 6.77548 3.42489 6.8669 3.55851C7.00053 3.7519 7.02866 3.82223 7.02866 3.95233C7.02866 4.04024 7.00756 4.15276 6.97943 4.20903C6.95481 4.26177 6.88449 4.34616 6.82119 4.40242C6.76141 4.45517 6.6524 4.50791 6.58207 4.51846C6.50822 4.53253 6.39218 4.52549 6.32537 4.5044C6.25856 4.4833 6.14603 4.40594 6.07922 4.3321C6.00889 4.25825 5.87526 4.08947 5.78032 3.95233C5.65021 3.76949 5.6045 3.66751 5.59395 3.54796C5.5834 3.43895 5.59746 3.34753 5.64318 3.25259C5.68186 3.17523 5.76625 3.07677 5.83307 3.03106C5.91746 2.9748 6.00537 2.95019 6.12493 2.95019ZM11.9517 2.96073C12.0396 2.96777 12.1592 3.00645 12.226 3.04864C12.2858 3.09084 12.3631 3.17875 12.3948 3.24204C12.4264 3.30182 12.451 3.43192 12.451 3.53038C12.4475 3.68158 12.4264 3.74136 12.2787 3.94882C12.1873 4.07892 12.0572 4.25122 11.9974 4.32506C11.9271 4.40594 11.8286 4.47626 11.7513 4.50088C11.6774 4.52198 11.5614 4.53253 11.4946 4.51846C11.4277 4.50791 11.3187 4.46572 11.259 4.42704C11.1957 4.38836 11.1183 4.30397 11.0866 4.24419C11.055 4.18089 11.0269 4.05431 11.0234 3.9664C11.0198 3.8363 11.0445 3.76949 11.1464 3.61477C11.2168 3.50928 11.3363 3.3405 11.4137 3.23852C11.4946 3.12952 11.6071 3.02754 11.6739 2.99941C11.7407 2.97128 11.8638 2.9537 11.9517 2.96073ZM9.12095 3.18929C9.19831 3.19633 9.34249 3.23852 9.43743 3.28072C9.53589 3.32643 9.66249 3.40027 9.71875 3.4495C9.77501 3.49873 10.0387 3.85739 10.7737 4.94745L11.4594 5.16195C11.8357 5.2815 12.24 5.41864 12.3561 5.46435C12.5003 5.52413 12.6198 5.605 12.7359 5.72807C12.8273 5.82301 12.9328 5.9707 12.968 6.05509C13.0066 6.13596 13.0488 6.28365 13.0629 6.37859C13.077 6.50166 13.0664 6.6177 13.0242 6.76538C12.9926 6.88142 12.9293 7.02559 12.8906 7.08185C12.8484 7.14163 12.6058 7.44755 11.8849 8.34772L11.8814 8.9455C11.8814 9.27603 11.8673 9.67689 11.8497 9.84216C11.8251 10.0778 11.7935 10.1903 11.702 10.3661C11.6352 10.4892 11.5192 10.6439 11.4418 10.7072C11.3644 10.7705 11.2238 10.8584 11.1253 10.9006C10.9917 10.9639 10.8862 10.9814 10.6858 10.9814C10.4502 10.9779 10.3447 10.9498 9.01546 10.4821L8.24184 10.7423C7.54558 10.9814 7.44712 11.0061 7.25723 10.992C7.13064 10.985 6.96536 10.9428 6.8458 10.8865C6.73328 10.8338 6.57504 10.7248 6.49064 10.6439C6.40976 10.5595 6.30427 10.4223 6.26207 10.3344C6.21988 10.2465 6.17065 10.0567 6.14955 9.91248C6.13196 9.76831 6.11438 9.36042 6.11438 8.36531L5.60098 7.72534C5.31615 7.37019 5.05241 7.01153 5.01022 6.92362C4.95747 6.80758 4.93637 6.69506 4.93637 6.50166C4.93637 6.31178 4.95747 6.19222 5.01022 6.0797C5.0489 5.9918 5.15087 5.84411 5.23878 5.74917C5.32318 5.65775 5.45681 5.54874 5.53417 5.50654C5.61153 5.46787 5.99834 5.33425 6.3957 5.21117C6.79306 5.08459 7.1447 4.96855 7.17987 4.95097C7.21152 4.93339 7.45767 4.59934 7.72492 4.20903C7.98865 3.81871 8.2559 3.46357 8.31217 3.42137C8.37195 3.37918 8.47392 3.31588 8.54074 3.28424C8.60755 3.24907 8.73414 3.21039 8.82205 3.19633C8.90996 3.18578 9.04359 3.18226 9.12095 3.18929ZM8.08008 5.97773C8.01327 6.02696 7.89723 6.1008 7.81986 6.13948C7.7425 6.17816 7.41195 6.2942 7.08141 6.39617C6.75438 6.49814 6.47306 6.58957 6.45899 6.60363C6.44845 6.61418 6.6313 6.87087 6.87394 7.16976C7.1236 7.4792 7.33459 7.7816 7.36976 7.87302C7.41547 7.99609 7.42954 8.18949 7.44009 8.76968C7.44712 9.17757 7.46118 9.52569 7.46822 9.54327C7.47525 9.56437 7.7636 9.48349 8.12579 9.35691C8.65326 9.17757 8.8115 9.13889 8.99788 9.13889C9.18776 9.13889 9.33194 9.17406 9.84182 9.35339C10.1794 9.46943 10.4748 9.56789 10.4924 9.5714C10.5135 9.57492 10.5346 9.2901 10.5451 8.80484C10.5627 8.07697 10.5697 8.02071 10.6506 7.83786C10.6998 7.73237 10.9249 7.4159 11.1499 7.1346C11.375 6.85329 11.5473 6.61418 11.5368 6.60363C11.5227 6.58957 11.2449 6.49814 10.9143 6.39266C10.5838 6.29068 10.2673 6.18871 10.2111 6.16409C10.1548 6.13948 10.0423 6.07619 9.9649 6.01993C9.87699 5.95312 9.67655 5.70346 9.41985 5.33073C9.19831 5.00723 9.00491 4.7435 8.99436 4.7435C8.98381 4.7435 8.80095 5.0002 8.58645 5.31666C8.37195 5.62962 8.14338 5.9285 8.08008 5.97773ZM4.91879 8.25982C4.9856 8.25982 5.09813 8.28795 5.16494 8.32311C5.23175 8.36179 5.32318 8.44267 5.36889 8.50947C5.42516 8.59387 5.44626 8.67826 5.44626 8.79781C5.44626 8.88924 5.42164 9.01231 5.39351 9.06857C5.36538 9.12483 5.29856 9.2057 5.24582 9.2479C5.18955 9.28658 4.97505 9.37449 4.76055 9.4413C4.41242 9.55382 4.35967 9.56437 4.22605 9.52921C4.14165 9.50811 4.02912 9.4413 3.96934 9.38504C3.91308 9.32878 3.84979 9.21625 3.82869 9.13889C3.80407 9.04747 3.80407 8.95253 3.82869 8.86814C3.84627 8.7943 3.88847 8.69936 3.92011 8.65364C3.95528 8.61145 4.02912 8.54815 4.0889 8.51651C4.14868 8.48486 4.33154 8.41453 4.49681 8.36179C4.66209 8.30553 4.85198 8.26333 4.91879 8.25982ZM13.1297 8.25982C13.186 8.25982 13.4005 8.31608 13.6044 8.38289C13.8084 8.45321 14.0123 8.54464 14.0545 8.58683C14.1003 8.62903 14.16 8.70639 14.1882 8.76265C14.2163 8.81539 14.2374 8.9244 14.2374 9.00879C14.2374 9.09318 14.2093 9.20219 14.1671 9.27252C14.1284 9.33229 14.0616 9.40965 14.0194 9.43778C13.9737 9.46591 13.8822 9.50459 13.8154 9.52569C13.7099 9.55734 13.6361 9.54327 13.2739 9.43075C12.982 9.33932 12.8238 9.269 12.7534 9.20219C12.7007 9.14593 12.6374 9.04395 12.6163 8.97363C12.5952 8.89979 12.5847 8.78023 12.5987 8.7099C12.6093 8.63606 12.6585 8.52706 12.7007 8.46728C12.7464 8.40399 12.8378 8.33366 12.9047 8.30904C12.9715 8.28443 13.0734 8.26333 13.1297 8.25982ZM9.05766 11.2909C9.16667 11.2979 9.27568 11.3296 9.33897 11.3753C9.39172 11.4139 9.4726 11.5159 9.51831 11.6038C9.58512 11.7339 9.59567 11.8148 9.59567 12.1102C9.59567 12.4055 9.58512 12.4864 9.51831 12.62C9.46556 12.722 9.3882 12.8064 9.29677 12.8592C9.18425 12.9224 9.12095 12.9365 8.98029 12.9224C8.88535 12.9154 8.76579 12.8767 8.72008 12.8416C8.67436 12.8064 8.60403 12.7326 8.56184 12.6798C8.49502 12.5884 8.48799 12.5357 8.48799 12.1102C8.48799 11.6882 8.49502 11.632 8.56184 11.5405C8.60052 11.4878 8.68843 11.4034 8.75524 11.3612C8.85018 11.2944 8.90996 11.2803 9.05766 11.2909Z" fill="#A9DFD8"/>
</svg>
