<svg width="16" height="16" viewBox="0 0 16 16" fill="none" xmlns="http://www.w3.org/2000/svg">
<path d="M1.34659 0.101829C1.1944 0.152561 0.987566 0.254025 0.8822 0.324268C0.776834 0.39061 0.605127 0.546707 0.495859 0.663781C0.390493 0.780854 0.253907 0.983781 0.191468 1.11256C0.129029 1.24134 0.0587854 1.48329 0.0314684 1.6589C-0.00755602 1.92427 -0.00755602 2.01402 0.0470781 2.26378C0.0782976 2.42378 0.156346 2.66183 0.218785 2.79061C0.281224 2.91939 0.421712 3.12232 0.530981 3.23939C0.644151 3.35646 0.835371 3.51646 0.960249 3.59061C1.08513 3.66476 1.30366 3.75841 1.44415 3.79354C1.58464 3.82866 1.79147 3.85988 1.90464 3.85988C2.01391 3.86378 2.20122 3.84427 2.31049 3.82085C2.42366 3.79744 2.62269 3.7272 2.75147 3.66476C2.88025 3.60232 3.06366 3.48524 3.16122 3.40329C3.25879 3.32134 3.41098 3.14183 3.50464 3.00134C3.5983 2.86476 3.70757 2.63841 3.75049 2.49793C3.79732 2.33793 3.82464 2.1311 3.82464 1.93207C3.82464 1.73305 3.79732 1.52622 3.75049 1.36622C3.70757 1.22573 3.6061 1.0072 3.52025 0.878415C3.4383 0.749634 3.30171 0.585732 3.21586 0.511585C3.13391 0.437439 3.00122 0.339878 2.92708 0.293049C2.85293 0.242317 2.65781 0.160366 2.49781 0.101829C2.27927 0.027683 2.13098 0.00036594 1.91244 0.00426838C1.70561 0.00426838 1.53781 0.0315855 1.34659 0.101829ZM11.2002 5.15159C11.0168 5.19061 10.7788 5.25305 10.6734 5.28817C10.5642 5.3272 10.3885 5.40134 10.2832 5.45598C10.1739 5.50671 9.98269 5.62378 9.85391 5.71354C9.72513 5.79939 9.5183 5.9711 9.39342 6.09598C9.27244 6.22085 9.10464 6.42378 9.02269 6.54476L8.8783 6.76329L8.83927 5.3272L5.65879 5.30768V16.0004H8.97586C8.97586 11.4345 8.99147 10.1428 9.01488 9.93207C9.0383 9.73695 9.08513 9.47549 9.11635 9.34671C9.15147 9.21793 9.23342 8.99939 9.29976 8.86281C9.37781 8.71451 9.50659 8.5389 9.62757 8.42573C9.74074 8.32037 9.92805 8.19159 10.0373 8.14085C10.1505 8.08622 10.3651 8.02378 10.5173 7.99646C10.6656 7.97305 10.931 7.96134 11.1027 7.97305C11.2861 7.98476 11.5124 8.02768 11.649 8.08232C11.7934 8.13695 11.9573 8.23841 12.0744 8.34768C12.1759 8.44524 12.3124 8.62476 12.371 8.74183C12.4295 8.8589 12.4998 9.03451 12.5271 9.13207C12.5544 9.22963 12.5934 9.39354 12.6129 9.50281C12.6363 9.61988 12.6637 10.9506 12.6793 12.8394L12.7027 15.9809H15.9807C16.0002 11.0209 15.9885 9.68622 15.9612 9.24915C15.9378 8.87451 15.8832 8.3711 15.8402 8.13695C15.7973 7.8989 15.7115 7.55549 15.6451 7.36427C15.5827 7.17695 15.4851 6.9311 15.4305 6.81793C15.372 6.70866 15.2549 6.50963 15.1612 6.38085C15.0715 6.25207 14.892 6.05305 14.7671 5.93598C14.6422 5.82281 14.4237 5.6589 14.2832 5.57695C14.1427 5.495 13.8695 5.37402 13.6783 5.31159C13.4832 5.24524 13.1515 5.1672 12.9368 5.13207C12.7222 5.10085 12.3163 5.07354 12.0393 5.07744C11.7037 5.07744 11.4188 5.10476 11.2002 5.15159ZM0.27342 10.654V16.0004H3.59049V5.30768H0.27342V10.654Z" fill="white"/>
</svg>
