<svg width="16" height="16" viewBox="0 0 16 16" fill="none" xmlns="http://www.w3.org/2000/svg">
<path fill-rule="evenodd" clip-rule="evenodd" d="M0.0195312 0.000195313L4.77482 -0.00292969L6.8347 2.9252C7.96843 4.53457 8.90097 5.85645 8.91055 5.85957C8.92013 5.86582 10.0698 4.56895 11.4654 2.97832C12.861 1.39082 14.0267 0.0689453 14.0523 0.0439453C14.0906 0.00957031 14.2311 0.00332031 15.4798 0.0158203L12.5161 3.39082C10.8842 5.24707 9.54927 6.77207 9.54927 6.78145C9.54927 6.79082 10.9896 8.84395 12.7461 11.3439C14.5026 13.8439 15.9557 15.9158 15.9716 15.9471C16.0004 15.9971 15.8758 16.0002 11.2579 16.0033L9.0862 12.9096C7.89179 11.2064 6.89857 9.81894 6.88261 9.8252C6.86344 9.82832 5.62752 11.2221 1.42153 16.0033H0.718932C0.054661 16.0033 0.0195312 16.0002 0.0642418 15.9471C0.0897907 15.9189 1.49179 14.3252 3.17482 12.4096C4.86105 10.4908 6.2375 8.90645 6.2375 8.89082C6.2375 8.87207 4.86424 6.90332 3.1876 4.51582C1.51095 2.1252 0.112146 0.13457 0.0802099 0.0845703L0.0195312 0.000195313ZM6.92732 8.03457L11.8998 14.9846C13.6499 15.0002 14.0491 14.9908 14.0427 14.9721C14.0395 14.9564 11.8008 11.8127 9.07023 7.9877L4.10416 1.03457C2.45945 1.03457 1.97722 1.04395 1.97083 1.05645C1.96444 1.06895 4.19358 4.20957 6.92732 8.03145V8.03457Z" fill="white"/>
</svg>
