<svg width="18" height="19" viewBox="0 0 18 19" fill="none" xmlns="http://www.w3.org/2000/svg">
<path fill-rule="evenodd" clip-rule="evenodd" d="M8.95566 0.50043C9.46555 0.496914 9.75038 0.514495 10.1302 0.570754C10.408 0.609433 10.8053 0.679757 11.0198 0.728985C11.2343 0.774696 11.6141 0.883699 11.8638 0.968088C12.1134 1.05248 12.4651 1.18609 12.6374 1.26345C12.8097 1.34432 13.1192 1.49904 13.3231 1.60804C13.5271 1.71704 13.826 1.89989 13.9912 2.00889C14.1565 2.11789 14.4484 2.3359 14.6418 2.49061C14.8352 2.64533 15.1587 2.93718 15.3591 3.1376C15.5596 3.33803 15.8514 3.66152 16.0062 3.85491C16.1609 4.0483 16.3789 4.34015 16.4879 4.50541C16.5969 4.67068 16.7798 4.96956 16.8888 5.1735C16.9978 5.37744 17.1525 5.68687 17.2334 5.85916C17.3108 6.03146 17.4514 6.40418 17.5429 6.68547C17.6378 6.96677 17.7538 7.39224 17.8031 7.63486C17.8523 7.87748 17.9156 8.26426 17.9473 8.49633C17.9754 8.73544 18 9.182 18 9.52659C18 9.94853 17.9789 10.2826 17.9262 10.6342C17.8875 10.9085 17.8171 11.3058 17.7679 11.5203C17.7222 11.7348 17.6132 12.1145 17.5288 12.3642C17.4444 12.6138 17.3108 12.9655 17.2334 13.1378C17.1525 13.31 16.9978 13.6195 16.8888 13.8234C16.7798 14.0274 16.5969 14.3262 16.4879 14.4915C16.3789 14.6568 16.1609 14.9486 16.0062 15.142C15.8514 15.3354 15.5596 15.6589 15.3591 15.8593C15.1587 16.0597 14.8352 16.3516 14.6418 16.5063C14.4484 16.661 14.1565 16.879 13.9912 16.988C13.826 17.097 13.5271 17.2799 13.3231 17.3889C13.1192 17.4979 12.8097 17.6526 12.6374 17.7335C12.4651 17.8108 12.1134 17.9444 11.8638 18.0288C11.6141 18.1132 11.2343 18.2222 11.0198 18.2679C10.8053 18.3172 10.408 18.3875 10.1302 18.4262C9.64841 18.4965 9.48313 18.5 0.505609 18.5L0.347368 18.4015C0.259456 18.3488 0.150446 18.2398 0.0133042 18.0253L0.00275478 13.507C-0.00427814 9.58636 -0.000761681 8.92883 0.0484688 8.53149C0.0801169 8.27833 0.143413 7.87748 0.192644 7.63486C0.241874 7.39224 0.357917 6.96677 0.452862 6.68547C0.54429 6.40418 0.684948 6.03146 0.76231 5.85916C0.843189 5.68687 0.997913 5.37744 1.10692 5.1735C1.21593 4.96956 1.39879 4.67068 1.5078 4.50541C1.61681 4.34015 1.83483 4.0483 1.98956 3.85491C2.14428 3.66152 2.43615 3.33803 2.63658 3.1376C2.83702 2.93718 3.16054 2.64533 3.35394 2.49061C3.54735 2.3359 3.83921 2.11789 4.00449 2.00889C4.16976 1.89989 4.46866 1.71704 4.67261 1.60804C4.87657 1.49904 5.1825 1.34432 5.35832 1.26345C5.53063 1.18609 5.90338 1.04545 6.18469 0.954023C6.46601 0.862601 6.85282 0.753598 7.04623 0.711404C7.23963 0.669209 7.59479 0.605917 7.83743 0.570754C8.13633 0.525043 8.49149 0.503946 8.95215 0.50043H8.95566ZM7.87611 1.99131C7.67215 2.01944 7.31699 2.09328 7.08491 2.15306C6.85282 2.20932 6.48711 2.32535 6.27612 2.40974C6.06162 2.49413 5.75568 2.63126 5.59041 2.71214C5.42514 2.79653 5.17195 2.93718 5.02778 3.02508C4.8836 3.1165 4.59877 3.31693 4.39481 3.46813C4.19086 3.62284 3.84976 3.92172 3.63878 4.13621C3.42427 4.34718 3.12537 4.68826 2.97065 4.8922C2.81944 5.09614 2.619 5.38095 2.52757 5.52512C2.43966 5.66928 2.299 5.92245 2.21461 6.08772C2.13373 6.25298 1.99307 6.56944 1.90868 6.79096C1.82076 7.01248 1.70472 7.37817 1.64846 7.59969C1.59219 7.82122 1.52187 8.15526 1.4867 8.3381C1.43747 8.63346 1.42692 9.1398 1.41637 12.8846L1.40582 17.0935C9.36006 17.0724 9.86643 17.0619 10.1618 17.0126C10.3447 16.9775 10.6787 16.9071 10.9003 16.8509C11.1218 16.7946 11.4875 16.6786 11.7091 16.5907C11.9306 16.5063 12.2471 16.3657 12.4123 16.2848C12.5776 16.2004 12.8308 16.0597 12.975 15.9718C13.1192 15.8804 13.404 15.68 13.6079 15.5288C13.8119 15.3741 14.153 15.0752 14.364 14.8607C14.5785 14.6497 14.8774 14.3087 15.0321 14.1047C15.1833 13.9008 15.3838 13.616 15.4752 13.4718C15.5631 13.3276 15.7038 13.0745 15.7881 12.9092C15.869 12.7439 16.0062 12.4345 16.0906 12.2235C16.175 12.009 16.291 11.6469 16.3473 11.4148C16.407 11.1827 16.4844 10.8206 16.5161 10.6061C16.5583 10.3318 16.5758 10.0083 16.5758 9.49846C16.5758 8.9886 16.5583 8.66511 16.5161 8.39085C16.4844 8.17636 16.407 7.81418 16.3473 7.58211C16.291 7.35004 16.175 6.98787 16.0906 6.77338C16.0062 6.55889 15.869 6.25298 15.7881 6.08772C15.7038 5.92245 15.5631 5.66928 15.4752 5.52512C15.3838 5.38095 15.1833 5.09614 15.0321 4.8922C14.8774 4.68826 14.5785 4.34718 14.364 4.13621C14.153 3.92172 13.8119 3.62284 13.6079 3.46813C13.404 3.31693 13.1192 3.1165 12.975 3.02508C12.8308 2.93718 12.5776 2.79653 12.4123 2.71214C12.2471 2.63126 11.9306 2.49061 11.7091 2.40623C11.4875 2.31832 11.1218 2.20228 10.9003 2.14602C10.6787 2.08976 10.3376 2.01944 10.1442 1.99131C9.95082 1.95966 9.50775 1.92802 9.15962 1.92099C8.81149 1.91747 8.46336 1.91747 8.386 1.9245C8.30863 1.93153 8.08006 1.96318 7.87611 1.99131ZM9.01896 5.43721C9.26863 5.44425 9.57808 5.47589 9.70467 5.50754C9.83126 5.53918 10.0352 5.60599 10.1618 5.65522C10.2884 5.70445 10.4853 5.80642 10.6014 5.88026C10.7174 5.95058 10.8967 6.10178 11.0022 6.2143C11.1077 6.33034 11.2449 6.53076 11.3082 6.66789C11.375 6.80151 11.4418 7.00194 11.4629 7.10742C11.484 7.21291 11.4981 7.37114 11.4981 7.45904C11.4981 7.54695 11.4734 7.72628 11.4453 7.86341C11.4137 7.99703 11.3328 8.21855 11.266 8.35568C11.1956 8.4893 11.0726 8.69676 10.9882 8.81279C10.9038 8.92883 10.7139 9.14332 10.5592 9.28748C10.408 9.43165 10.1583 9.66372 10.0036 9.80085C9.79961 9.98018 9.6906 10.1103 9.60269 10.2755C9.50423 10.4654 9.47962 10.5533 9.455 10.8346C9.43742 11.0175 9.42687 11.2214 9.42335 11.2812C9.42335 11.3621 9.38819 11.4359 9.30731 11.5203C9.22643 11.6117 9.14555 11.6574 9.01896 11.6855C8.9205 11.7066 8.74819 11.7137 8.63215 11.7066C8.51611 11.6996 8.37545 11.668 8.31918 11.6398C8.2594 11.6117 8.18204 11.5344 8.14336 11.4675C8.07655 11.3585 8.06952 11.2847 8.06952 10.8522C8.06952 10.4725 8.08358 10.3107 8.13633 10.149C8.17149 10.0329 8.23831 9.85711 8.28402 9.76217C8.32973 9.66372 8.44226 9.49142 8.5372 9.37539C8.62863 9.25935 8.86423 9.03783 9.05412 8.88312C9.24753 8.73192 9.48313 8.52446 9.58159 8.42601C9.67654 8.32755 9.79258 8.17987 9.83478 8.09197C9.87698 8.00406 9.91917 7.85286 9.93324 7.75792C9.9473 7.65947 9.94027 7.51882 9.91917 7.43091C9.89808 7.35004 9.82775 7.22346 9.76445 7.14962C9.69764 7.07929 9.56049 6.98084 9.455 6.93513C9.32137 6.87535 9.1772 6.84722 8.96621 6.83316C8.80094 6.82612 8.5794 6.83667 8.47391 6.85777C8.36841 6.87887 8.20666 6.94216 8.11171 7.00194C8.01325 7.06523 7.86556 7.21291 7.75303 7.36762C7.64402 7.51179 7.51391 7.65595 7.46117 7.69112C7.40139 7.72628 7.29941 7.75089 7.1904 7.75089C7.08842 7.74738 6.9548 7.71925 6.87392 7.67705C6.79656 7.64189 6.69458 7.56453 6.64535 7.50827C6.59612 7.45201 6.53282 7.34301 6.50821 7.26565C6.47656 7.17423 6.46953 7.06523 6.48359 6.94919C6.49766 6.85074 6.55744 6.67141 6.61722 6.54483C6.68403 6.40418 6.80359 6.24243 6.92315 6.12288C7.03216 6.01388 7.22908 5.86619 7.36622 5.78884C7.49985 5.715 7.72842 5.61654 7.86556 5.57083C8.00622 5.52512 8.22072 5.47589 8.34028 5.45831C8.46336 5.43721 8.76577 5.43018 9.01896 5.43721ZM8.80797 12.5787C8.90292 12.5892 9.03654 12.6209 9.09632 12.649C9.15962 12.6771 9.28621 12.765 9.37412 12.8459C9.4761 12.9444 9.55698 13.0604 9.60269 13.1799C9.63786 13.2819 9.66951 13.4296 9.66951 13.507C9.66951 13.5843 9.63786 13.732 9.60269 13.8304C9.55346 13.957 9.4761 14.0696 9.35654 14.1821C9.22291 14.3051 9.12445 14.3649 8.97325 14.4071C8.84314 14.4458 8.71654 14.4563 8.61457 14.4423C8.52666 14.4282 8.39303 14.386 8.31567 14.3473C8.23831 14.3051 8.13633 14.2383 8.09413 14.1997C8.04842 14.1575 7.96754 14.052 7.91831 13.9641C7.85853 13.8586 7.82336 13.7355 7.81281 13.5949C7.80226 13.4612 7.81633 13.3241 7.84798 13.2257C7.87611 13.1378 7.94644 13.0077 8.0027 12.9303C8.05897 12.8565 8.16094 12.7615 8.22776 12.7228C8.29457 12.6806 8.41413 12.6279 8.49149 12.6033C8.57237 12.5787 8.70599 12.5681 8.80797 12.5787Z" fill="#A9DFD8"/>
</svg>
